<svg width="56" height="56" viewBox="0 0 56 56" fill="none" xmlns="http://www.w3.org/2000/svg">
<g id="Camada_1">
<rect width="56" height="56" rx="28" fill="white"/>
<g id="Group 543">
<path id="Vector" d="M39.6392 14.2624L47.7529 15.8221L49.3127 7.69336" stroke="#E400E4" stroke-width="1.5" stroke-linecap="round" stroke-linejoin="round"/>
<path id="Vector_2" d="M3.5393 29.5905C3.22434 21.5817 6.92879 13.5879 14.0527 8.75863C25.0161 1.31975 39.9388 4.18432 47.3777 15.1477" stroke="#E400E4" stroke-width="1.5" stroke-miterlimit="10" stroke-linecap="round"/>
<path id="Vector_3" d="M15.2676 42.3081L7.13887 40.7483L5.5791 48.8621" stroke="#E400E4" stroke-width="1.5" stroke-linecap="round" stroke-linejoin="round"/>
<path id="Vector_4" d="M51.5022 27.071C51.8172 35.0798 48.1127 43.0736 40.9888 47.9029C30.0254 55.3418 15.1027 52.4772 7.66382 41.5139" stroke="#E400E4" stroke-width="1.5" stroke-miterlimit="10" stroke-linecap="round"/>
<path id="Vector_5" d="M14.3229 32.0648C15.4177 31.1499 16.2876 30.4 16.9325 29.7851C17.5774 29.1852 18.1173 28.5403 18.5522 27.8804C18.9872 27.2205 19.1971 26.5756 19.1971 25.9457C19.1971 25.3608 19.0621 24.9109 18.7922 24.5809C18.5222 24.2509 18.1023 24.086 17.5324 24.086C16.9625 24.086 16.5275 24.2809 16.2276 24.6559C15.9276 25.0308 15.7626 25.5558 15.7476 26.2157H13.438C13.483 24.8509 13.8879 23.816 14.6528 23.1111C15.4177 22.4062 16.3925 22.0613 17.5774 22.0613C18.8672 22.0613 19.872 22.4062 20.5619 23.0961C21.2518 23.786 21.5968 24.6859 21.5968 25.8107C21.5968 26.6956 21.3568 27.5355 20.8769 28.3453C20.3969 29.1552 19.857 29.8601 19.2421 30.445C18.6272 31.0449 17.8323 31.7648 16.8425 32.6047H21.8667V34.5844H13.453V32.8147L14.3379 32.0648H14.3229Z" fill="#E400E4"/>
<path id="Vector_6" d="M22.9615 32.1694V30.2947L28.5257 22.3159H31.3003V30.0847H32.8001V32.1694H31.3003V34.5841H28.9156V32.1694H22.9465H22.9615ZM29.0806 24.8805L25.5861 30.0997H29.0806V24.8805Z" fill="#E400E4"/>
<path id="Vector_7" d="M41.6186 26.0051V34.5988H39.8938V30.9394H36.2194V34.5988H34.4946V26.0051H36.2194V29.5296H39.8938V26.0051H41.6186Z" fill="#E400E4"/>
</g>
</g>
</svg>
