<svg width="58" height="58" viewBox="0 0 58 58" fill="none" xmlns="http://www.w3.org/2000/svg">
<path d="M26.1306 22.967V25.7028C26.0796 28.1497 20.3362 29.6281 20.3362 29.6281C12.3497 32.024 12.6896 38.0733 12.6896 38.0733V50.7156" stroke="black" stroke-width="2" stroke-linecap="round" stroke-linejoin="round"/>
<path d="M37.4985 29.1526C37.4985 29.1526 35.4934 34.3523 29.648 34.1484C23.8026 34.3523 21.7975 29.1526 21.7975 29.1526" stroke="black" stroke-width="2" stroke-linecap="round" stroke-linejoin="round"/>
<path d="M37.9913 12.8569C39.0279 16.6463 36.3431 17.5299 36.3431 17.5299C36.3431 17.5299 35.3065 22.7125 30.5826 24.1739C29.9709 24.3608 29.3252 24.3608 28.7135 24.1739C23.9726 22.6956 22.953 17.5299 22.953 17.5299C22.953 17.5299 20.2682 16.6293 21.3048 12.8569C21.3048 12.8569 23.2929 13.4857 24.7372 10.1891C26.1816 6.89261 24.8732 5.17638 28.3056 7.3684C28.3056 7.3684 29.818 5.46525 31.6362 7.3684C33.4543 9.27155 34.6608 12.2792 38.0083 12.8569H37.9913Z" stroke="black" stroke-width="2" stroke-linecap="round" stroke-linejoin="round"/>
<path d="M35.3914 23.9866C35.3914 23.9866 39.9284 25.363 41.8485 23.4429C43.7687 21.5227 40.6761 15.3715 40.6761 15.3715C42.2564 9.42414 37.5155 6.80731 37.5155 6.80731C35.0346 -0.312506 30.1408 2.01545 28.7814 2.84808C28.5605 2.98402 28.3056 2.98402 28.0677 2.84808C26.9802 2.25335 23.6327 1.0129 21.7465 6.77333C21.7465 6.77333 17.0057 9.40715 18.5859 15.3375C18.5859 15.3375 15.4933 21.4887 17.4135 23.4089C19.3336 25.329 23.8706 23.9526 23.8706 23.9526" stroke="black" stroke-width="2" stroke-linecap="round" stroke-linejoin="round"/>
<path d="M30.8375 55.1848H26.9632C25.1111 55.1848 23.5988 53.6725 23.5988 51.8203C23.5988 49.9681 25.1111 48.4558 26.9632 48.4558" stroke="black" stroke-width="2" stroke-linecap="round" stroke-linejoin="round"/>
<path d="M33.2843 22.967V25.7028C33.3353 28.1497 39.0787 29.6281 39.0787 29.6281C47.0482 32.041 46.7083 38.0903 46.7083 38.0903V51.8371C46.7083 53.6893 45.196 55.2016 43.3438 55.2016" stroke="black" stroke-width="2" stroke-linecap="round" stroke-linejoin="round"/>
<path d="M17.9572 31.2595L31.704 56.1874H44.0745L17.9572 31.2595Z" stroke="black" stroke-width="2" stroke-linecap="round" stroke-linejoin="round"/>
<path d="M39.5885 40.5544V48.4559H36.241" stroke="black" stroke-width="2" stroke-linecap="round" stroke-linejoin="round"/>
<path d="M19.1128 40.5544V50.7329" stroke="black" stroke-width="2" stroke-linecap="round" stroke-linejoin="round"/>
</svg>
