<svg width="58" height="58" viewBox="0 0 58 58" fill="none" xmlns="http://www.w3.org/2000/svg">
<path d="M29.0025 54.6084H52.2143C54.7972 54.6084 56.6833 52.1784 56.0716 49.6805L48.9517 21.0311C48.391 18.7711 46.3519 17.1738 44.0239 17.1738H29.0025H13.9811C11.6531 17.1738 9.61403 18.7711 9.05327 21.0311L1.93341 49.6805C1.30468 52.1784 3.20785 54.6084 5.79071 54.6084H29.0025Z" stroke="black" stroke-width="2" stroke-linecap="round" stroke-linejoin="round"/>
<path d="M49.2059 26.8254L30.803 35.7465C29.6645 36.2902 28.3561 36.2902 27.2176 35.7295L8.23694 26.2646" stroke="black" stroke-width="2" stroke-linecap="round" stroke-linejoin="round"/>
<path d="M29.0019 32.2462C29.8934 32.2462 30.6162 31.5234 30.6162 30.6319C30.6162 29.7403 29.8934 29.0176 29.0019 29.0176C28.1103 29.0176 27.3876 29.7403 27.3876 30.6319C27.3876 31.5234 28.1103 32.2462 29.0019 32.2462Z" stroke="black" stroke-width="2" stroke-linecap="round" stroke-linejoin="round"/>
<path d="M41.4071 17.1737V13.0785C41.4071 11.6002 41.1182 10.1218 40.4895 8.77944C39.1471 5.99266 36.0205 1.98243 29.0875 1.8125H28.9176C22.3755 1.98243 19.2149 5.56785 17.7535 8.30364C16.9719 9.78199 16.598 11.4303 16.598 13.0955V17.1567" stroke="black" stroke-width="2" stroke-linecap="round" stroke-linejoin="round"/>
</svg>
