<svg width="114" height="104" viewBox="0 0 114 104" fill="none" xmlns="http://www.w3.org/2000/svg">
<g clip-path="url(#clip0_43_3087)">
<path d="M61.8936 32.0005L52.1154 32.0005" stroke="white" stroke-width="2" stroke-linecap="round" stroke-linejoin="round"/>
<path d="M55.7247 28.3916L52.106 32.001L55.7247 35.6104" stroke="white" stroke-width="2" stroke-linecap="round" stroke-linejoin="round"/>
<path d="M57 47C48.7125 47 42 40.2875 42 32C42 23.7125 48.7125 17 57 17C65.2875 17 72 23.7125 72 32C72 40.2875 65.2875 47 57 47Z" stroke="white" stroke-width="2" stroke-linecap="round" stroke-linejoin="round"/>
</g>
<path d="M39.4796 64.363L33.9566 79H31.7516L26.2286 64.363H28.2656L32.8646 76.984L37.4636 64.363H39.4796ZM46.594 79.189C45.516 79.189 44.536 78.944 43.654 78.454C42.786 77.964 42.1 77.271 41.596 76.375C41.106 75.465 40.861 74.415 40.861 73.225C40.861 72.049 41.113 71.013 41.617 70.117C42.135 69.207 42.835 68.514 43.717 68.038C44.599 67.548 45.586 67.303 46.678 67.303C47.77 67.303 48.757 67.548 49.639 68.038C50.521 68.514 51.214 69.2 51.718 70.096C52.236 70.992 52.495 72.035 52.495 73.225C52.495 74.415 52.229 75.465 51.697 76.375C51.179 77.271 50.472 77.964 49.576 78.454C48.68 78.944 47.686 79.189 46.594 79.189ZM46.594 77.509C47.28 77.509 47.924 77.348 48.526 77.026C49.128 76.704 49.611 76.221 49.975 75.577C50.353 74.933 50.542 74.149 50.542 73.225C50.542 72.301 50.36 71.517 49.996 70.873C49.632 70.229 49.156 69.753 48.568 69.445C47.98 69.123 47.343 68.962 46.657 68.962C45.957 68.962 45.313 69.123 44.725 69.445C44.151 69.753 43.689 70.229 43.339 70.873C42.989 71.517 42.814 72.301 42.814 73.225C42.814 74.163 42.982 74.954 43.318 75.598C43.668 76.242 44.13 76.725 44.704 77.047C45.278 77.355 45.908 77.509 46.594 77.509ZM56.9186 63.46V79H55.0076V63.46H56.9186ZM62.5066 69.067V75.85C62.5066 76.41 62.6256 76.809 62.8636 77.047C63.1016 77.271 63.5146 77.383 64.1026 77.383H65.5096V79H63.7876C62.7236 79 61.9256 78.755 61.3936 78.265C60.8616 77.775 60.5956 76.97 60.5956 75.85V69.067H59.1046V67.492H60.5956V64.594H62.5066V67.492H65.5096V69.067H62.5066ZM67.111 73.204C67.111 72.028 67.349 70.999 67.825 70.117C68.301 69.221 68.952 68.528 69.778 68.038C70.618 67.548 71.549 67.303 72.571 67.303C73.579 67.303 74.454 67.52 75.196 67.954C75.938 68.388 76.491 68.934 76.855 69.592V67.492H78.787V79H76.855V76.858C76.477 77.53 75.91 78.09 75.154 78.538C74.412 78.972 73.544 79.189 72.55 79.189C71.528 79.189 70.604 78.937 69.778 78.433C68.952 77.929 68.301 77.222 67.825 76.312C67.349 75.402 67.111 74.366 67.111 73.204ZM76.855 73.225C76.855 72.357 76.68 71.601 76.33 70.957C75.98 70.313 75.504 69.823 74.902 69.487C74.314 69.137 73.663 68.962 72.949 68.962C72.235 68.962 71.584 69.13 70.996 69.466C70.408 69.802 69.939 70.292 69.589 70.936C69.239 71.58 69.064 72.336 69.064 73.204C69.064 74.086 69.239 74.856 69.589 75.514C69.939 76.158 70.408 76.655 70.996 77.005C71.584 77.341 72.235 77.509 72.949 77.509C73.663 77.509 74.314 77.341 74.902 77.005C75.504 76.655 75.98 76.158 76.33 75.514C76.68 74.856 76.855 74.093 76.855 73.225ZM83.9274 69.361C84.2634 68.703 84.7394 68.192 85.3554 67.828C85.9854 67.464 86.7484 67.282 87.6444 67.282V69.256H87.1404C84.9984 69.256 83.9274 70.418 83.9274 72.742V79H82.0164V67.492H83.9274V69.361Z" fill="white"/>
<path d="M0 -2H106C111.523 -2 116 2.47715 116 8H112C112 4.68629 109.314 2 106 2H0V-2ZM116 96C116 101.523 111.523 106 106 106H0V102H106C109.314 102 112 99.3137 112 96H116ZM0 104V0V104ZM106 -2C111.523 -2 116 2.47715 116 8V96C116 101.523 111.523 106 106 106V102C109.314 102 112 99.3137 112 96V8C112 4.68629 109.314 2 106 2V-2Z" fill="white" mask="url(#path-1-inside-1_43_3087)"/>
<defs>
<clipPath id="clip0_43_3087">
<rect width="32" height="32" fill="white" transform="translate(73 16) rotate(90)"/>
</clipPath>
</defs>
</svg>
