<svg width="114" height="104" viewBox="0 0 114 104" fill="none" xmlns="http://www.w3.org/2000/svg">
<g clip-path="url(#clip0_43_3104)">
<path d="M67.605 42.605C61.7449 48.465 52.2469 48.465 46.3868 42.605C40.5268 36.7449 40.5268 27.2469 46.3868 21.3868C52.2469 15.5362 61.7543 15.5362 67.605 21.3962C73.465 27.2469 73.465 36.7543 67.605 42.605Z" stroke="white" stroke-width="2"/>
<path d="M62.1855 26.8157L51.8156 37.1856" stroke="white" stroke-width="2" stroke-linecap="round"/>
<path d="M62.1855 37.1856L51.8156 26.8157" stroke="white" stroke-width="2" stroke-linecap="round"/>
</g>
<path d="M43.4987 79.147C42.5327 79.147 41.6647 78.979 40.8947 78.643C40.1387 78.293 39.5437 77.817 39.1097 77.215C38.6757 76.599 38.4517 75.892 38.4377 75.094H40.4747C40.5447 75.78 40.8247 76.361 41.3147 76.837C41.8187 77.299 42.5467 77.53 43.4987 77.53C44.4087 77.53 45.1227 77.306 45.6407 76.858C46.1727 76.396 46.4387 75.808 46.4387 75.094C46.4387 74.534 46.2847 74.079 45.9767 73.729C45.6687 73.379 45.2837 73.113 44.8217 72.931C44.3597 72.749 43.7367 72.553 42.9527 72.343C41.9867 72.091 41.2097 71.839 40.6217 71.587C40.0477 71.335 39.5507 70.943 39.1307 70.411C38.7247 69.865 38.5217 69.137 38.5217 68.227C38.5217 67.429 38.7247 66.722 39.1307 66.106C39.5367 65.49 40.1037 65.014 40.8317 64.678C41.5737 64.342 42.4207 64.174 43.3727 64.174C44.7447 64.174 45.8647 64.517 46.7327 65.203C47.6147 65.889 48.1117 66.799 48.2237 67.933H46.1237C46.0537 67.373 45.7597 66.883 45.2417 66.463C44.7237 66.029 44.0377 65.812 43.1837 65.812C42.3857 65.812 41.7347 66.022 41.2307 66.442C40.7267 66.848 40.4747 67.422 40.4747 68.164C40.4747 68.696 40.6217 69.13 40.9157 69.466C41.2237 69.802 41.5947 70.061 42.0287 70.243C42.4767 70.411 43.0997 70.607 43.8977 70.831C44.8637 71.097 45.6407 71.363 46.2287 71.629C46.8167 71.881 47.3207 72.28 47.7407 72.826C48.1607 73.358 48.3707 74.086 48.3707 75.01C48.3707 75.724 48.1817 76.396 47.8037 77.026C47.4257 77.656 46.8657 78.167 46.1237 78.559C45.3817 78.951 44.5067 79.147 43.4987 79.147ZM50.4689 73.204C50.4689 72.028 50.7069 70.999 51.1829 70.117C51.6589 69.221 52.3099 68.528 53.1359 68.038C53.9759 67.548 54.9069 67.303 55.9289 67.303C56.9369 67.303 57.8119 67.52 58.5539 67.954C59.2959 68.388 59.8489 68.934 60.2129 69.592V67.492H62.1449V79H60.2129V76.858C59.8349 77.53 59.2679 78.09 58.5119 78.538C57.7699 78.972 56.9019 79.189 55.9079 79.189C54.8859 79.189 53.9619 78.937 53.1359 78.433C52.3099 77.929 51.6589 77.222 51.1829 76.312C50.7069 75.402 50.4689 74.366 50.4689 73.204ZM60.2129 73.225C60.2129 72.357 60.0379 71.601 59.6879 70.957C59.3379 70.313 58.8619 69.823 58.2599 69.487C57.6719 69.137 57.0209 68.962 56.3069 68.962C55.5929 68.962 54.9419 69.13 54.3539 69.466C53.7659 69.802 53.2969 70.292 52.9469 70.936C52.5969 71.58 52.4219 72.336 52.4219 73.204C52.4219 74.086 52.5969 74.856 52.9469 75.514C53.2969 76.158 53.7659 76.655 54.3539 77.005C54.9419 77.341 55.5929 77.509 56.3069 77.509C57.0209 77.509 57.6719 77.341 58.2599 77.005C58.8619 76.655 59.3379 76.158 59.6879 75.514C60.0379 74.856 60.2129 74.093 60.2129 73.225ZM66.3613 65.623C65.9973 65.623 65.6893 65.497 65.4373 65.245C65.1853 64.993 65.0593 64.685 65.0593 64.321C65.0593 63.957 65.1853 63.649 65.4373 63.397C65.6893 63.145 65.9973 63.019 66.3613 63.019C66.7113 63.019 67.0053 63.145 67.2433 63.397C67.4953 63.649 67.6213 63.957 67.6213 64.321C67.6213 64.685 67.4953 64.993 67.2433 65.245C67.0053 65.497 66.7113 65.623 66.3613 65.623ZM67.2853 67.492V79H65.3743V67.492H67.2853ZM72.4533 69.361C72.7893 68.703 73.2653 68.192 73.8813 67.828C74.5113 67.464 75.2743 67.282 76.1703 67.282V69.256H75.6663C73.5243 69.256 72.4533 70.418 72.4533 72.742V79H70.5423V67.492H72.4533V69.361Z" fill="white"/>
<path d="M0 -2H106C111.523 -2 116 2.47715 116 8H112C112 4.68629 109.314 2 106 2H0V-2ZM116 96C116 101.523 111.523 106 106 106H0V102H106C109.314 102 112 99.3137 112 96H116ZM0 104V0V104ZM106 -2C111.523 -2 116 2.47715 116 8V96C116 101.523 111.523 106 106 106V102C109.314 102 112 99.3137 112 96V8C112 4.68629 109.314 2 106 2V-2Z" fill="white" mask="url(#path-1-inside-1_43_3104)"/>
<defs>
<clipPath id="clip0_43_3104">
<rect width="32" height="32" fill="white" transform="translate(73 16) rotate(90)"/>
</clipPath>
</defs>
</svg>
