<svg width="66" height="72" viewBox="0 0 66 72" fill="none" xmlns="http://www.w3.org/2000/svg">
<g clip-path="url(#clip0_226_100)">
<path d="M43.605 26.605C37.7449 32.465 28.2469 32.465 22.3868 26.605C16.5268 20.7449 16.5268 11.2469 22.3868 5.38684C28.2469 -0.463844 37.7543 -0.463843 43.605 5.39622C49.465 11.2469 49.465 20.7543 43.605 26.605Z" stroke="white" stroke-width="2"/>
<path d="M38.1855 10.8157L27.8156 21.1856" stroke="white" stroke-width="2" stroke-linecap="round"/>
<path d="M38.1855 21.1856L27.8156 10.8157" stroke="white" stroke-width="2" stroke-linecap="round"/>
</g>
<path d="M19.4987 63.147C18.5327 63.147 17.6647 62.979 16.8947 62.643C16.1387 62.293 15.5437 61.817 15.1097 61.215C14.6757 60.599 14.4517 59.892 14.4377 59.094H16.4747C16.5447 59.78 16.8247 60.361 17.3147 60.837C17.8187 61.299 18.5467 61.53 19.4987 61.53C20.4087 61.53 21.1227 61.306 21.6407 60.858C22.1727 60.396 22.4387 59.808 22.4387 59.094C22.4387 58.534 22.2847 58.079 21.9767 57.729C21.6687 57.379 21.2837 57.113 20.8217 56.931C20.3597 56.749 19.7367 56.553 18.9527 56.343C17.9867 56.091 17.2097 55.839 16.6217 55.587C16.0477 55.335 15.5507 54.943 15.1307 54.411C14.7247 53.865 14.5217 53.137 14.5217 52.227C14.5217 51.429 14.7247 50.722 15.1307 50.106C15.5367 49.49 16.1037 49.014 16.8317 48.678C17.5737 48.342 18.4207 48.174 19.3727 48.174C20.7447 48.174 21.8647 48.517 22.7327 49.203C23.6147 49.889 24.1117 50.799 24.2237 51.933H22.1237C22.0537 51.373 21.7597 50.883 21.2417 50.463C20.7237 50.029 20.0377 49.812 19.1837 49.812C18.3857 49.812 17.7347 50.022 17.2307 50.442C16.7267 50.848 16.4747 51.422 16.4747 52.164C16.4747 52.696 16.6217 53.13 16.9157 53.466C17.2237 53.802 17.5947 54.061 18.0287 54.243C18.4767 54.411 19.0997 54.607 19.8977 54.831C20.8637 55.097 21.6407 55.363 22.2287 55.629C22.8167 55.881 23.3207 56.28 23.7407 56.826C24.1607 57.358 24.3707 58.086 24.3707 59.01C24.3707 59.724 24.1817 60.396 23.8037 61.026C23.4257 61.656 22.8657 62.167 22.1237 62.559C21.3817 62.951 20.5067 63.147 19.4987 63.147ZM26.4689 57.204C26.4689 56.028 26.7069 54.999 27.1829 54.117C27.6589 53.221 28.3099 52.528 29.1359 52.038C29.9759 51.548 30.9069 51.303 31.9289 51.303C32.9369 51.303 33.8119 51.52 34.5539 51.954C35.2959 52.388 35.8489 52.934 36.2129 53.592V51.492H38.1449V63H36.2129V60.858C35.8349 61.53 35.2679 62.09 34.5119 62.538C33.7699 62.972 32.9019 63.189 31.9079 63.189C30.8859 63.189 29.9619 62.937 29.1359 62.433C28.3099 61.929 27.6589 61.222 27.1829 60.312C26.7069 59.402 26.4689 58.366 26.4689 57.204ZM36.2129 57.225C36.2129 56.357 36.0379 55.601 35.6879 54.957C35.3379 54.313 34.8619 53.823 34.2599 53.487C33.6719 53.137 33.0209 52.962 32.3069 52.962C31.5929 52.962 30.9419 53.13 30.3539 53.466C29.7659 53.802 29.2969 54.292 28.9469 54.936C28.5969 55.58 28.4219 56.336 28.4219 57.204C28.4219 58.086 28.5969 58.856 28.9469 59.514C29.2969 60.158 29.7659 60.655 30.3539 61.005C30.9419 61.341 31.5929 61.509 32.3069 61.509C33.0209 61.509 33.6719 61.341 34.2599 61.005C34.8619 60.655 35.3379 60.158 35.6879 59.514C36.0379 58.856 36.2129 58.093 36.2129 57.225ZM42.3613 49.623C41.9973 49.623 41.6893 49.497 41.4373 49.245C41.1853 48.993 41.0593 48.685 41.0593 48.321C41.0593 47.957 41.1853 47.649 41.4373 47.397C41.6893 47.145 41.9973 47.019 42.3613 47.019C42.7113 47.019 43.0053 47.145 43.2433 47.397C43.4953 47.649 43.6213 47.957 43.6213 48.321C43.6213 48.685 43.4953 48.993 43.2433 49.245C43.0053 49.497 42.7113 49.623 42.3613 49.623ZM43.2853 51.492V63H41.3743V51.492H43.2853ZM48.4533 53.361C48.7893 52.703 49.2653 52.192 49.8813 51.828C50.5113 51.464 51.2743 51.282 52.1703 51.282V53.256H51.6663C49.5243 53.256 48.4533 54.418 48.4533 56.742V63H46.5423V51.492H48.4533V53.361Z" fill="white"/>
<defs>
<clipPath id="clip0_226_100">
<rect width="32" height="32" fill="white" transform="translate(49) rotate(90)"/>
</clipPath>
</defs>
</svg>
