<svg width="66" height="72" viewBox="0 0 66 72" fill="none" xmlns="http://www.w3.org/2000/svg">
<g clip-path="url(#clip0_226_71)">
<path d="M37.8936 16.0005L28.1154 16.0005" stroke="white" stroke-width="2" stroke-linecap="round" stroke-linejoin="round"/>
<path d="M31.7247 12.3916L28.106 16.001L31.7247 19.6104" stroke="white" stroke-width="2" stroke-linecap="round" stroke-linejoin="round"/>
<path d="M33 31C24.7125 31 18 24.2875 18 16C18 7.7125 24.7125 0.999999 33 0.999999C41.2875 1 48 7.7125 48 16C48 24.2875 41.2875 31 33 31Z" stroke="white" stroke-width="2" stroke-linecap="round" stroke-linejoin="round"/>
</g>
<path d="M15.4796 48.363L9.9566 63H7.7516L2.2286 48.363H4.2656L8.8646 60.984L13.4636 48.363H15.4796ZM22.594 63.189C21.516 63.189 20.536 62.944 19.654 62.454C18.786 61.964 18.1 61.271 17.596 60.375C17.106 59.465 16.861 58.415 16.861 57.225C16.861 56.049 17.113 55.013 17.617 54.117C18.135 53.207 18.835 52.514 19.717 52.038C20.599 51.548 21.586 51.303 22.678 51.303C23.77 51.303 24.757 51.548 25.639 52.038C26.521 52.514 27.214 53.2 27.718 54.096C28.236 54.992 28.495 56.035 28.495 57.225C28.495 58.415 28.229 59.465 27.697 60.375C27.179 61.271 26.472 61.964 25.576 62.454C24.68 62.944 23.686 63.189 22.594 63.189ZM22.594 61.509C23.28 61.509 23.924 61.348 24.526 61.026C25.128 60.704 25.611 60.221 25.975 59.577C26.353 58.933 26.542 58.149 26.542 57.225C26.542 56.301 26.36 55.517 25.996 54.873C25.632 54.229 25.156 53.753 24.568 53.445C23.98 53.123 23.343 52.962 22.657 52.962C21.957 52.962 21.313 53.123 20.725 53.445C20.151 53.753 19.689 54.229 19.339 54.873C18.989 55.517 18.814 56.301 18.814 57.225C18.814 58.163 18.982 58.954 19.318 59.598C19.668 60.242 20.13 60.725 20.704 61.047C21.278 61.355 21.908 61.509 22.594 61.509ZM32.9186 47.46V63H31.0076V47.46H32.9186ZM38.5066 53.067V59.85C38.5066 60.41 38.6256 60.809 38.8636 61.047C39.1016 61.271 39.5146 61.383 40.1026 61.383H41.5096V63H39.7876C38.7236 63 37.9256 62.755 37.3936 62.265C36.8616 61.775 36.5956 60.97 36.5956 59.85V53.067H35.1046V51.492H36.5956V48.594H38.5066V51.492H41.5096V53.067H38.5066ZM43.111 57.204C43.111 56.028 43.349 54.999 43.825 54.117C44.301 53.221 44.952 52.528 45.778 52.038C46.618 51.548 47.549 51.303 48.571 51.303C49.579 51.303 50.454 51.52 51.196 51.954C51.938 52.388 52.491 52.934 52.855 53.592V51.492H54.787V63H52.855V60.858C52.477 61.53 51.91 62.09 51.154 62.538C50.412 62.972 49.544 63.189 48.55 63.189C47.528 63.189 46.604 62.937 45.778 62.433C44.952 61.929 44.301 61.222 43.825 60.312C43.349 59.402 43.111 58.366 43.111 57.204ZM52.855 57.225C52.855 56.357 52.68 55.601 52.33 54.957C51.98 54.313 51.504 53.823 50.902 53.487C50.314 53.137 49.663 52.962 48.949 52.962C48.235 52.962 47.584 53.13 46.996 53.466C46.408 53.802 45.939 54.292 45.589 54.936C45.239 55.58 45.064 56.336 45.064 57.204C45.064 58.086 45.239 58.856 45.589 59.514C45.939 60.158 46.408 60.655 46.996 61.005C47.584 61.341 48.235 61.509 48.949 61.509C49.663 61.509 50.314 61.341 50.902 61.005C51.504 60.655 51.98 60.158 52.33 59.514C52.68 58.856 52.855 58.093 52.855 57.225ZM59.9274 53.361C60.2634 52.703 60.7394 52.192 61.3554 51.828C61.9854 51.464 62.7484 51.282 63.6444 51.282V53.256H63.1404C60.9984 53.256 59.9274 54.418 59.9274 56.742V63H58.0164V51.492H59.9274V53.361Z" fill="white"/>
<defs>
<clipPath id="clip0_226_71">
<rect width="32" height="32" fill="white" transform="translate(49) rotate(90)"/>
</clipPath>
</defs>
</svg>
