<svg width="32" height="33" viewBox="0 0 32 33" fill="none" xmlns="http://www.w3.org/2000/svg">
<g clip-path="url(#clip0_67_1082)">
<path d="M29.7 3.19995H2.26C1.28798 3.19995 0.5 3.98793 0.5 4.95995V30.74C0.5 31.712 1.28798 32.5 2.26 32.5H29.7C30.672 32.5 31.46 31.712 31.46 30.74V4.95995C31.46 3.98793 30.672 3.19995 29.7 3.19995Z" stroke="white" stroke-linecap="round" stroke-linejoin="round"/>
<path d="M0.5 8.18005H31.46" stroke="white" stroke-linecap="round" stroke-linejoin="round"/>
<path d="M7.0399 5.94001C6.5499 5.94001 6.1499 5.57001 6.1499 5.11001V1.34001C6.1499 0.88001 6.5499 0.51001 7.0399 0.51001H7.7999C8.2899 0.51001 8.6899 0.88001 8.6899 1.34001V2.68001" stroke="white" stroke-linecap="round" stroke-linejoin="round"/>
<path d="M15.6 5.94001C15.11 5.94001 14.71 5.57001 14.71 5.11001V1.34001C14.71 0.88001 15.11 0.51001 15.6 0.51001H16.36C16.85 0.51001 17.25 0.88001 17.25 1.34001V2.68001" stroke="white" stroke-linecap="round" stroke-linejoin="round"/>
<path d="M24.16 5.94001C23.67 5.94001 23.27 5.57001 23.27 5.11001V1.34001C23.27 0.88001 23.67 0.51001 24.16 0.51001H24.92C25.41 0.51001 25.81 0.88001 25.81 1.34001V2.68001" stroke="white" stroke-linecap="round" stroke-linejoin="round"/>
<path d="M6.72002 15.15C7.52083 15.15 8.17002 14.5008 8.17002 13.7C8.17002 12.8992 7.52083 12.25 6.72002 12.25C5.91921 12.25 5.27002 12.8992 5.27002 13.7C5.27002 14.5008 5.91921 15.15 6.72002 15.15Z" fill="white"/>
<path d="M12.8899 15.15C13.6908 15.15 14.3399 14.5008 14.3399 13.7C14.3399 12.8992 13.6908 12.25 12.8899 12.25C12.0891 12.25 11.4399 12.8992 11.4399 13.7C11.4399 14.5008 12.0891 15.15 12.8899 15.15Z" fill="white"/>
<path d="M19.0701 15.15C19.8709 15.15 20.5201 14.5008 20.5201 13.7C20.5201 12.8992 19.8709 12.25 19.0701 12.25C18.2693 12.25 17.6201 12.8992 17.6201 13.7C17.6201 14.5008 18.2693 15.15 19.0701 15.15Z" fill="white"/>
<path d="M6.72002 21.9601C7.52083 21.9601 8.17002 21.3109 8.17002 20.5101C8.17002 19.7092 7.52083 19.0601 6.72002 19.0601C5.91921 19.0601 5.27002 19.7092 5.27002 20.5101C5.27002 21.3109 5.91921 21.9601 6.72002 21.9601Z" fill="white"/>
<path d="M12.8899 21.9601C13.6908 21.9601 14.3399 21.3109 14.3399 20.5101C14.3399 19.7092 13.6908 19.0601 12.8899 19.0601C12.0891 19.0601 11.4399 19.7092 11.4399 20.5101C11.4399 21.3109 12.0891 21.9601 12.8899 21.9601Z" fill="white"/>
<path d="M19.0701 21.9601C19.8709 21.9601 20.5201 21.3109 20.5201 20.5101C20.5201 19.7092 19.8709 19.0601 19.0701 19.0601C18.2693 19.0601 17.6201 19.7092 17.6201 20.5101C17.6201 21.3109 18.2693 21.9601 19.0701 21.9601Z" fill="white"/>
<path d="M25.24 21.9601C26.0409 21.9601 26.69 21.3109 26.69 20.5101C26.69 19.7092 26.0409 19.0601 25.24 19.0601C24.4392 19.0601 23.79 19.7092 23.79 20.5101C23.79 21.3109 24.4392 21.9601 25.24 21.9601Z" fill="white"/>
<path d="M6.72002 28.76C7.52083 28.76 8.17002 28.1108 8.17002 27.31C8.17002 26.5092 7.52083 25.86 6.72002 25.86C5.91921 25.86 5.27002 26.5092 5.27002 27.31C5.27002 28.1108 5.91921 28.76 6.72002 28.76Z" fill="white"/>
<path d="M12.8899 28.76C13.6908 28.76 14.3399 28.1108 14.3399 27.31C14.3399 26.5092 13.6908 25.86 12.8899 25.86C12.0891 25.86 11.4399 26.5092 11.4399 27.31C11.4399 28.1108 12.0891 28.76 12.8899 28.76Z" fill="white"/>
<path d="M19.0701 28.76C19.8709 28.76 20.5201 28.1108 20.5201 27.31C20.5201 26.5092 19.8709 25.86 19.0701 25.86C18.2693 25.86 17.6201 26.5092 17.6201 27.31C17.6201 28.1108 18.2693 28.76 19.0701 28.76Z" fill="white"/>
<path d="M25.24 28.76C26.0409 28.76 26.69 28.1108 26.69 27.31C26.69 26.5092 26.0409 25.86 25.24 25.86C24.4392 25.86 23.79 26.5092 23.79 27.31C23.79 28.1108 24.4392 28.76 25.24 28.76Z" fill="white"/>
<path d="M23.9702 13.01L25.3202 14.35L27.6602 12.01" stroke="white" stroke-linecap="round" stroke-linejoin="round"/>
</g>
<defs>
<clipPath id="clip0_67_1082">
<rect width="31.96" height="33" fill="white"/>
</clipPath>
</defs>
</svg>
