<svg width="70" height="62" viewBox="0 0 70 62" fill="none" xmlns="http://www.w3.org/2000/svg">
<g id="Group 98">
<path id="Vector" d="M6.54453 1.75H58.8359V12.318H6.54453C3.63359 12.318 1.25 9.95547 1.25 7.02344C1.25 4.1125 3.6125 1.75 6.54453 1.75Z" stroke="#1B1B1B" stroke-width="2" stroke-miterlimit="10"/>
<path id="Vector_2" d="M1.25 6.55945V55.0962C1.25 58.0915 3.67578 60.4962 6.65 60.4962H63.35C66.3453 60.4962 68.75 58.0704 68.75 55.0962V17.718C68.75 14.7227 66.3242 12.318 63.35 12.318H51.2211" stroke="#1B1B1B" stroke-width="2" stroke-miterlimit="10"/>
<path id="Vector_3" d="M49.8918 26.5985H68.7496V46.6798H49.8918C44.3442 46.6798 39.8512 42.1868 39.8512 36.6391C39.8512 31.0915 44.3442 26.5985 49.8918 26.5985Z" stroke="#1B1B1B" stroke-width="2" stroke-miterlimit="10"/>
<path id="Vector_4" d="M49.2374 40.2884C51.2528 40.2884 52.8866 38.6546 52.8866 36.6392C52.8866 34.6238 51.2528 32.99 49.2374 32.99C47.2219 32.99 45.5881 34.6238 45.5881 36.6392C45.5881 38.6546 47.2219 40.2884 49.2374 40.2884Z" fill="#1B1B1B"/>
</g>
</svg>
