<svg width="58" height="55" viewBox="0 0 58 55" fill="none" xmlns="http://www.w3.org/2000/svg">
<g id="Group 378">
<path id="Vector" d="M42.1011 43.0991C42.5234 43.0991 42.8657 42.7568 42.8657 42.3345C42.8657 41.9122 42.5234 41.5698 42.1011 41.5698C41.6788 41.5698 41.3364 41.9122 41.3364 42.3345C41.3364 42.7568 41.6788 43.0991 42.1011 43.0991Z" fill="black"/>
<path id="Vector_2" d="M49.4416 27.5171V53.77H8.47339V26.9224" stroke="black" stroke-width="2" stroke-linecap="round" stroke-linejoin="round"/>
<path id="Vector_3" d="M25.2788 31.1194H13.4182V44.4583H25.2788V31.1194Z" stroke="black" stroke-width="2" stroke-linecap="round" stroke-linejoin="round"/>
<path id="Vector_4" d="M32.0927 53.5661V31.1194H44.8878V53.5661" stroke="black" stroke-width="2" stroke-linecap="round" stroke-linejoin="round"/>
<path id="Vector_5" d="M28.2524 8.43487L8.30352 26.6505C7.35196 27.5171 5.87363 27.4491 5.00703 26.4976C4.14043 25.546 4.2084 24.0677 5.15996 23.2011L25.1088 5.00244" stroke="black" stroke-width="2" stroke-miterlimit="10"/>
<path id="Vector_6" d="M26.0263 5.66529L28.1673 7.61939L48.9997 26.6507C49.9513 27.5173 51.4296 27.4493 52.2962 26.4977C53.1628 25.5462 53.0949 24.0678 52.1433 23.2012L29.1699 2.23286C28.2183 1.36626 26.74 1.43423 25.8734 2.38579C25.0068 3.33735 25.0747 4.81568 26.0263 5.68228V5.66529Z" stroke="black" stroke-width="2" stroke-miterlimit="10"/>
<path id="Vector_7" d="M19.3485 30.3889V45.1891" stroke="black" stroke-width="2" stroke-miterlimit="10"/>
<path id="Vector_8" d="M25.2787 37.7805H12.5176" stroke="black" stroke-width="2" stroke-miterlimit="10"/>
<path id="Vector_9" d="M4.8541 47.7039C3.17188 47.7039 1.8125 49.0632 1.8125 50.7455C1.8125 52.4277 3.17188 53.7871 4.8541 53.7871H8.96622" stroke="black" stroke-width="2" stroke-linecap="round" stroke-linejoin="round"/>
<path id="Vector_10" d="M6.17954 48.0437C5.05806 48.0437 4.15747 47.1431 4.15747 46.0216C4.15747 44.9001 5.05806 43.9995 6.17954 43.9995H8.32056" stroke="black" stroke-width="2" stroke-linecap="round" stroke-linejoin="round"/>
<path id="Vector_11" d="M53.1459 47.7039C54.8281 47.7039 56.1875 49.0632 56.1875 50.7455C56.1875 52.4277 54.8281 53.7871 53.1459 53.7871H49.0338" stroke="black" stroke-width="2" stroke-linecap="round" stroke-linejoin="round"/>
<path id="Vector_12" d="M51.8205 48.0437C52.9419 48.0437 53.8425 47.1431 53.8425 46.0216C53.8425 44.9001 52.9419 43.9995 51.8205 43.9995H49.6794" stroke="black" stroke-width="2" stroke-linecap="round" stroke-linejoin="round"/>
</g>
</svg>
