<svg width="130" height="87" viewBox="0 0 130 87" fill="none" xmlns="http://www.w3.org/2000/svg">
<g id="Group 209">
<path id="Vector" d="M108.796 21.574H5.87219C3.31943 21.574 1.25 23.6434 1.25 26.1962V73.0556C1.25 75.6084 3.31943 77.6778 5.87219 77.6778H108.796C111.348 77.6778 113.418 75.6084 113.418 73.0556V26.1962C113.418 23.6434 111.348 21.574 108.796 21.574Z" stroke="#E400E4" stroke-width="2" stroke-linecap="round" stroke-linejoin="round"/>
<path id="Vector_2" d="M51.8153 78.0763L27.1104 85.7666C24.7994 86.4839 22.3687 85.2088 21.6515 82.8977L20.0576 77.7177" stroke="#E400E4" stroke-width="2" stroke-linecap="round" stroke-linejoin="round"/>
<path id="Vector_3" d="M45.001 21.4544L108.516 1.73036C111.226 0.893583 114.095 2.40775 114.932 5.11731L128.519 48.8688C129.356 51.5783 127.842 54.4473 125.132 55.284L113.417 58.9101" stroke="#E400E4" stroke-width="2" stroke-linecap="round" stroke-linejoin="round"/>
<path id="Vector_4" d="M58.549 41.5769C60.5413 42.1348 61.7765 43.37 62.4938 45.2428C62.8524 46.2389 62.6531 46.9163 61.8961 47.1953C61.1788 47.4742 60.5811 47.1554 60.2225 46.1593C59.306 43.4895 56.3972 43.4895 55.162 44.8443C54.8432 45.2029 54.5643 45.6412 54.4049 46.0796C54.0065 47.3945 54.4049 47.9922 55.68 48.2711C56.8754 48.5102 58.0708 48.5899 59.2662 48.829C62.3344 49.4267 63.6095 51.8972 62.3742 54.8059C61.7367 56.2803 60.6608 57.3163 59.1467 57.8343C58.6685 57.9937 58.5091 58.1929 58.5091 58.7109C58.5091 59.7071 58.0708 60.2649 57.2739 60.2649C56.4769 60.2649 56.0386 59.7071 56.0386 58.7109C56.0386 58.2327 55.9191 57.9937 55.4409 57.8343C53.7275 57.2366 52.6517 55.9216 52.054 54.2481C51.7352 53.3715 52.054 52.7339 52.7712 52.455C53.4884 52.2159 54.0065 52.4948 54.3651 53.3715C55.162 55.2443 56.4371 56.0412 58.0708 55.6427C58.9076 55.4435 59.585 54.9653 59.9436 54.1684C60.5413 52.8933 60.6608 51.6182 58.6685 51.3393C57.5129 51.1799 56.3176 51.0604 55.162 50.8213C52.2931 50.2236 51.0578 47.9125 52.0938 45.0834C52.6915 43.4497 53.8471 42.334 55.4808 41.7761C55.9589 41.6168 56.0785 41.3777 56.0386 40.9394C56.0386 40.7003 56.0386 40.4214 56.0386 40.1424C56.1183 39.465 56.5168 39.0666 57.1942 39.0267C57.8716 38.9869 58.3896 39.465 58.4693 40.1424C58.5091 40.6206 58.4693 41.0589 58.4693 41.5769H58.549Z" fill="#E400E4"/>
<path id="Vector_5" d="M74.1289 49.6258C74.1289 58.9101 66.5979 66.4012 57.3535 66.4012C48.1091 66.4012 40.5781 58.8702 40.5781 49.6258C40.5781 40.3815 48.1091 32.8505 57.3535 32.8505C66.5979 32.8505 74.1289 40.3815 74.1289 49.6258Z" stroke="#E400E4" stroke-width="2" stroke-linecap="round" stroke-linejoin="round"/>
<path id="Vector_6" d="M101.504 21.574C101.504 28.1486 106.843 33.4881 113.418 33.4881" stroke="#E400E4" stroke-width="2" stroke-miterlimit="10"/>
<path id="Vector_7" d="M113.418 65.7637C106.843 65.7637 101.504 71.1031 101.504 77.6778" stroke="#E400E4" stroke-width="2" stroke-miterlimit="10"/>
<path id="Vector_8" d="M13.1641 77.6778C13.1641 71.1031 7.82467 65.7637 1.25 65.7637" stroke="#E400E4" stroke-width="2" stroke-miterlimit="10"/>
<path id="Vector_9" d="M1.25 33.4881C7.82467 33.4881 13.1641 28.1486 13.1641 21.574" stroke="#E400E4" stroke-width="2" stroke-miterlimit="10"/>
<path id="Vector_10" d="M15.3955 49.6256H27.3495" stroke="#E400E4" stroke-width="2" stroke-linecap="round" stroke-linejoin="round"/>
<path id="Vector_11" d="M87.3584 49.6256H99.2725" stroke="#E400E4" stroke-width="2" stroke-linecap="round" stroke-linejoin="round"/>
</g>
</svg>
