<svg width="58" height="48" viewBox="0 0 58 48" fill="none" xmlns="http://www.w3.org/2000/svg">
<g id="Group 490">
<path id="Vector" d="M18.9811 29.0607C20.588 28.3556 21.1205 26.0286 20.1704 23.8631C19.2202 21.6976 17.1473 20.5137 15.5404 21.2187C13.9334 21.9238 13.401 24.2508 14.3511 26.4163C15.3013 28.5818 17.3742 29.7658 18.9811 29.0607Z" stroke="black" stroke-width="2"/>
<path id="Vector_2" d="M43.6473 26.4042C44.5974 24.2387 44.065 21.9117 42.458 21.2066C40.8511 20.5016 38.7782 21.6855 37.828 23.851C36.8779 26.0165 37.4103 28.3435 39.0173 29.0486C40.6242 29.7537 42.6971 28.5697 43.6473 26.4042Z" stroke="black" stroke-width="2"/>
<path id="Vector_3" d="M38.1274 17.2808C38.647 14.5904 37.4548 12.0978 35.4646 11.7135C33.4744 11.3292 31.4399 13.1986 30.9204 15.8891C30.4008 18.5795 31.593 21.0721 33.5832 21.4564C35.5733 21.8407 37.6079 19.9713 38.1274 17.2808Z" stroke="black" stroke-width="2"/>
<path id="Vector_4" d="M24.4114 21.4728C26.4016 21.0885 27.5938 18.5959 27.0742 15.9055C26.5546 13.215 24.5201 11.3456 22.5299 11.7299C20.5397 12.1142 19.3476 14.6068 19.8671 17.2972C20.3867 19.9877 22.4212 21.8571 24.4114 21.4728Z" stroke="black" stroke-width="2"/>
<path id="Vector_5" d="M32.5158 27.8245C32.5158 27.8245 32.4138 27.8245 32.3628 27.8245C32.7536 26.9919 32.8726 26.0234 32.4818 24.9699C32.057 23.8145 31.0545 22.897 29.8481 22.6421C27.4184 22.0984 25.2775 23.9335 25.2775 26.2613C25.2775 26.822 25.4134 27.3487 25.6343 27.8245C25.5833 27.8245 25.5324 27.8245 25.4814 27.8245C23.0007 27.8245 21.0297 30.0673 21.4884 32.633C21.7773 34.2642 23.1196 35.6065 24.7508 35.8953C25.5154 36.0313 26.229 35.9463 26.8747 35.7084C28.2679 35.1987 29.7292 35.1987 31.1225 35.7084C31.7681 35.9463 32.4988 36.0313 33.2464 35.8953C34.8775 35.6065 36.2199 34.2642 36.5087 32.633C36.9675 30.0673 34.9965 27.8245 32.5158 27.8245Z" stroke="black" stroke-width="2" stroke-linecap="round" stroke-linejoin="round"/>
<path id="Vector_6" d="M56.1506 16.5761C56.7793 8.13146 49.2861 1.25 40.8245 1.25C36.0499 1.25 31.8021 3.42488 28.9815 6.84013C26.178 3.42488 21.9132 1.25 17.1386 1.25C8.67697 1.25 1.8125 8.11447 1.8125 16.5761C1.8125 18.5301 2.18631 20.3822 2.84897 22.0983C2.84897 22.0983 2.89994 22.2512 3.01888 22.5061C3.01888 22.5401 3.03587 22.5571 3.05286 22.591C4.12331 25.0548 9.90034 36.5239 28.8626 46.3788C42.5066 39.2765 49.3201 31.3415 52.4805 26.533C52.4805 26.533 55.7938 21.7415 56.1676 16.5761H56.1506Z" stroke="black" stroke-width="2" stroke-linecap="round" stroke-linejoin="round"/>
</g>
</svg>
