<svg width="58" height="58" viewBox="0 0 58 58" fill="none" xmlns="http://www.w3.org/2000/svg">
<path d="M53.2988 11.3508C55.117 13.7977 56.1875 16.8223 56.1875 20.1018C56.1875 20.1018 56.1875 27.5443 51.8375 34.4092C48.0482 40.3734 45.9922 43.8229 45.8732 46.2527C45.7543 48.8355 45.3295 51.1635 43.4604 52.9477C42.4068 53.9502 40.8266 54.324 39.824 54.341C35.7969 54.426 33.8598 51.6732 33.8598 48.3768C33.8598 48.3768 34.3016 36.5332 29 36.3123C23.6984 36.5332 24.1402 48.3768 24.1402 48.3768C24.1402 51.6732 22.1861 54.443 18.176 54.341C17.1904 54.324 15.5932 53.9332 14.5396 52.9477C12.6705 51.1635 12.2457 48.8355 12.1268 46.2527C12.0078 43.8229 9.95176 40.3564 6.1625 34.4092C1.79551 27.5273 1.8125 20.0848 1.8125 20.0848C1.8125 11.9965 8.37149 5.4375 16.4598 5.4375C21.5744 5.4375 26.3662 8.53008 29 12.5062C31.6168 8.53008 36.4256 5.4375 41.5402 5.4375C44.3949 5.4375 47.0457 6.25312 49.2887 7.66348" stroke="black" stroke-width="2" stroke-linecap="round" stroke-linejoin="round"/>
<path d="M29 12.5061C29 12.5061 31.7527 17.3149 38.5496 14.1883" stroke="black" stroke-width="2" stroke-linecap="round" stroke-linejoin="round"/>
<path d="M55.253 9.27773L53.9106 10.3992C53.4178 10.807 52.942 11.2828 52.5342 11.7756L51.4127 13.118L50.6821 12.1494C50.0704 11.3338 49.3567 10.6201 48.5411 10.0084L47.5725 9.27773L48.8639 8.22422C49.4077 7.78242 49.9174 7.27266 50.3592 6.72891L51.4127 5.4375L52.5342 6.77988C52.942 7.27266 53.4178 7.74844 53.9106 8.15625L55.253 9.27773Z" stroke="black" stroke-width="2" stroke-linecap="round" stroke-linejoin="round"/>
</svg>
