<svg width="58" height="58" viewBox="0 0 58 58" fill="none" xmlns="http://www.w3.org/2000/svg">
<path d="M46.5049 34.9717L28.679 37.4357" stroke="black" stroke-width="2" stroke-linecap="round" stroke-linejoin="round"/>
<path d="M23.258 37.4359L2.90007 34.7169C2.27132 34.632 1.8125 34.1052 1.8125 33.4594V14.0532C1.8125 13.3564 2.37328 12.7957 3.07 12.7957H48.5949C49.2916 12.7957 49.8524 13.3564 49.8524 14.0532V33.4764C49.8524 34.1052 49.3426 34.9209 48.7139 35.0058" stroke="black" stroke-width="2" stroke-linecap="round" stroke-linejoin="round"/>
<path d="M41.4748 48.821H4.59942C3.9027 48.821 3.34192 48.2603 3.34192 47.5635V34.9885" stroke="black" stroke-width="2" stroke-linecap="round" stroke-linejoin="round"/>
<path d="M28.5768 35.9232C28.5768 34.4873 27.4127 33.3232 25.9768 33.3232C24.5409 33.3232 23.3768 34.4873 23.3768 35.9232V39.3219C23.3768 40.7578 24.5409 41.9218 25.9768 41.9218C27.4127 41.9218 28.5768 40.7578 28.5768 39.3219V35.9232Z" stroke="black" stroke-width="2" stroke-linecap="round" stroke-linejoin="round"/>
<path d="M18.449 12.7954V9.63463C18.449 9.10784 18.8738 8.66602 19.4176 8.66602H32.2815C32.8083 8.66602 33.2501 9.09085 33.2501 9.63463V12.7954" stroke="black" stroke-width="2" stroke-linecap="round" stroke-linejoin="round"/>
<path d="M15.0842 12.2518V6.86493C15.0842 6.06625 15.73 5.4375 16.5117 5.4375H35.1533C35.9519 5.4375 36.5807 6.08324 36.5807 6.86493V12.2518" stroke="black" stroke-width="2" stroke-linecap="round" stroke-linejoin="round"/>
<path d="M47.9492 52.3729C56.2759 48.0566 56.3779 41.6841 56.123 39.458C56.072 38.9822 55.7151 38.5914 55.2563 38.4554C52.0276 37.5038 49.3257 35.7195 48.1022 34.8359C47.6943 34.53 47.1335 34.53 46.7087 34.8359C45.4852 35.7195 42.7663 37.5038 39.5546 38.4554C39.0957 38.5914 38.7389 38.9822 38.6879 39.458C38.433 41.6841 38.535 48.0566 46.8616 52.3729C47.2015 52.5428 47.6263 52.5428 47.9662 52.3729H47.9492Z" stroke="black" stroke-width="2" stroke-linecap="round" stroke-linejoin="round"/>
<path d="M43.7858 43.2305L46.4197 45.8475L51.0079 41.2593" stroke="black" stroke-width="2" stroke-linecap="round" stroke-linejoin="round"/>
</svg>
