<svg width="114" height="130" viewBox="0 0 114 130" fill="none" xmlns="http://www.w3.org/2000/svg">
<g id="Group 438">
<path id="Vector" d="M1.82324 28.1392V123.69C1.82324 126.479 4.09446 128.75 6.88367 128.75H87.0934C89.8826 128.75 92.1538 126.479 92.1538 123.69V108.19" stroke="#E400E4" stroke-width="2" stroke-linecap="round" stroke-linejoin="round"/>
<path id="Vector_2" d="M23.1807 16.5843L83.3082 1.40304C86.0177 0.725663 88.7671 2.35934 89.4444 5.06886L112.834 97.7105C113.511 100.42 111.878 103.169 109.168 103.847L31.4288 123.491C28.7193 124.168 25.97 122.535 25.2926 119.825L1.90304 27.1435C1.22566 24.434 2.85934 21.6846 5.56886 21.0072L10.9481 19.6525" stroke="#E400E4" stroke-width="2" stroke-linecap="round" stroke-linejoin="round"/>
<path id="Vector_3" d="M50.2363 28.3382C52.7068 28.4178 54.4998 29.4937 55.8546 31.4063C56.5718 32.4423 56.532 33.279 55.6952 33.8369C54.9381 34.3549 54.1412 34.1557 53.4639 33.1595C51.6309 30.3703 48.2839 31.2071 47.2479 33.1197C46.969 33.6377 46.7697 34.2353 46.7697 34.7932C46.6901 36.4269 47.2877 37.0246 48.8816 36.9449C50.316 36.8652 51.7505 36.6261 53.1849 36.5464C56.8906 36.3472 59.0821 38.8176 58.5243 42.5233C58.2454 44.4359 57.2492 45.95 55.6952 46.986C55.2171 47.3048 55.0577 47.5837 55.2171 48.1814C55.5358 49.3369 55.1772 50.094 54.2608 50.3331C53.3443 50.5722 52.6669 50.0542 52.388 48.8986C52.2685 48.3408 52.0294 48.1017 51.4317 48.0619C49.28 47.8626 47.6464 46.6673 46.451 44.8742C45.8533 43.9577 45.9728 43.121 46.7299 42.603C47.487 42.085 48.2042 42.2842 48.8417 43.1608C50.2762 45.1133 52.0294 45.6313 53.7826 44.675C54.6991 44.1968 55.3366 43.4397 55.5358 42.4037C55.8546 40.7302 55.6155 39.2559 53.2248 39.495C51.8302 39.6544 50.4356 39.8935 49.0011 39.9333C45.4947 40.0528 43.4227 37.7418 43.7813 34.2353C43.9805 32.1634 45.0165 30.5695 46.7299 29.4538C47.2479 29.1351 47.3276 28.8562 47.1284 28.3382C47.0088 28.0592 46.9291 27.7405 46.9291 27.4217C46.8494 26.5849 47.1682 26.0271 47.9651 25.788C48.7222 25.5489 49.4793 25.9076 49.7582 26.7045C49.9574 27.2225 50.0371 27.7803 50.1965 28.378L50.2363 28.3382Z" fill="#E400E4"/>
<path id="Vector_4" d="M25.8906 71.8499L89.5245 55.792" stroke="#E400E4" stroke-width="2" stroke-linecap="round" stroke-linejoin="round"/>
<path id="Vector_5" d="M29.3174 85.398L92.9512 69.3401" stroke="#E400E4" stroke-width="2" stroke-linecap="round" stroke-linejoin="round"/>
<path id="Vector_6" d="M32.7441 98.9851L96.378 82.8873" stroke="#E400E4" stroke-width="2" stroke-linecap="round" stroke-linejoin="round"/>
<path id="Vector_7" d="M16.9646 24.6327V13.197C16.9646 11.8422 18.0404 10.2085 20.0327 10.2085C22.025 10.2085 22.7821 11.882 22.7821 13.197V29.215C22.7821 32.3628 20.2319 34.8731 17.1239 34.8731C13.9761 34.8731 11.4658 32.323 11.4658 29.215V12.8782C11.4658 8.13653 15.3309 4.27148 20.0725 4.27148C24.8142 4.27148 28.6792 8.13653 28.6792 12.8782" stroke="#E400E4" stroke-width="2" stroke-linecap="round" stroke-linejoin="round"/>
</g>
</svg>
