<svg width="69" height="70" viewBox="0 0 69 70" fill="none" xmlns="http://www.w3.org/2000/svg">
<g id="Group 458">
<g id="Group">
<path id="Vector" d="M55.9439 10.0026H11.7081C11.056 10.0026 10.5273 10.5312 10.5273 11.1833V32.1205C10.5273 32.7726 11.056 33.3012 11.7081 33.3012H55.9439C56.596 33.3012 57.1247 32.7726 57.1247 32.1205V11.1833C57.1247 10.5312 56.596 10.0026 55.9439 10.0026Z" stroke="black" stroke-width="2" stroke-linecap="round" stroke-linejoin="round"/>
<path id="Vector_2" d="M31.5278 33.47L19.7414 37.1387C19.636 37.1809 19.5095 37.1176 19.4884 37.0122L18.3499 33.3224" stroke="black" stroke-width="2" stroke-linecap="round" stroke-linejoin="round"/>
<path id="Vector_3" d="M28.7024 9.93951L56.5975 1.27368C56.8716 1.18934 57.1668 1.33693 57.2512 1.61103L63.8507 22.8645C63.935 23.1386 63.7874 23.4338 63.5133 23.5181L57.1036 25.5001" stroke="black" stroke-width="2" stroke-linecap="round" stroke-linejoin="round"/>
<g id="Group_2">
<path id="Vector_4" d="M34.3319 18.3101C35.1542 18.5421 35.6814 19.0692 35.9766 19.8282C36.1241 20.2288 36.0398 20.524 35.7235 20.6295C35.4283 20.7349 35.1753 20.6084 35.0277 20.2078C34.6482 19.1114 33.4464 19.1114 32.9403 19.6596C32.8138 19.8071 32.6873 19.9969 32.6241 20.1867C32.4554 20.7349 32.6241 20.9879 33.1512 21.0933C33.6361 21.1987 34.1422 21.2198 34.6482 21.3253C35.9133 21.5783 36.4615 22.5903 35.9555 23.8133C35.7024 24.4247 35.2386 24.8675 34.606 25.0783C34.4163 25.1416 34.3319 25.2259 34.353 25.4368C34.353 25.8585 34.1633 26.0904 33.847 26.0904C33.5307 26.0904 33.3199 25.8585 33.341 25.4368C33.341 25.2259 33.2777 25.1416 33.0879 25.0783C32.3711 24.8253 31.9283 24.2771 31.6753 23.5813C31.5488 23.2229 31.6753 22.9488 31.9704 22.8434C32.2656 22.7379 32.4976 22.8434 32.6452 23.2229C32.9614 24.003 33.5096 24.3193 34.1843 24.1506C34.5428 24.0663 34.8169 23.8554 34.9645 23.5392C35.2175 22.9909 35.2597 22.4849 34.4374 22.3584C33.9524 22.2952 33.4675 22.253 32.9825 22.1476C31.7807 21.8945 31.2746 20.9457 31.7174 19.765C31.9704 19.0903 32.4343 18.6264 33.1301 18.3945C33.3199 18.3312 33.3831 18.2469 33.362 18.0571C33.362 17.9517 33.362 17.8463 33.362 17.7408C33.4042 17.4667 33.5729 17.2981 33.847 17.277C34.1211 17.277 34.353 17.4457 34.3741 17.7408C34.3741 17.9306 34.3741 18.1204 34.3741 18.3523L34.3319 18.3101Z" fill="black"/>
<path id="Vector_5" d="M40.7839 21.6629C40.7839 25.5214 37.6634 28.6419 33.8049 28.6419C29.9463 28.6419 26.8258 25.5214 26.8258 21.6629C26.8258 17.8044 29.9463 14.6838 33.8049 14.6838C37.6634 14.6838 40.7839 17.8044 40.7839 21.6629Z" stroke="black" stroke-width="2" stroke-linecap="round" stroke-linejoin="round"/>
</g>
<path id="Vector_6" d="M52.1698 10.0026C52.1698 12.7436 54.3837 14.9575 57.1247 14.9575" stroke="black" stroke-width="2" stroke-miterlimit="10"/>
<path id="Vector_7" d="M57.1247 28.3678C54.3837 28.3678 52.1698 30.5817 52.1698 33.3227" stroke="black" stroke-width="2" stroke-miterlimit="10"/>
<path id="Vector_8" d="M15.4823 33.3016C15.4823 30.5606 13.2684 28.3467 10.5273 28.3467" stroke="black" stroke-width="2" stroke-miterlimit="10"/>
<path id="Vector_9" d="M10.5273 14.9575C13.2684 14.9575 15.4823 12.7436 15.4823 10.0026" stroke="black" stroke-width="2" stroke-miterlimit="10"/>
<g id="Group_3">
<path id="Vector_10" d="M16.4099 21.6624H21.3648" stroke="black" stroke-width="2" stroke-linecap="round" stroke-linejoin="round"/>
<path id="Vector_11" d="M46.287 21.6624H51.2419" stroke="black" stroke-width="2" stroke-linecap="round" stroke-linejoin="round"/>
</g>
</g>
<g id="Group_4">
<path id="Vector_12" d="M1.25 50.9281L8.5875 48.2714C9.36763 47.9973 10.1267 47.6389 10.8225 47.1961C13.1207 45.7623 19.9944 42.3888 27.6059 47.2383L29.6512 48.3136C30.6422 48.8196 31.6964 49.1991 32.7928 49.3889L41.4797 50.9492C43.1032 51.2444 44.6635 51.9823 45.8021 53.1842C46.772 54.1962 47.5732 55.6089 47.4889 57.5276C47.4889 57.9282 46.8985 58.5397 46.4979 58.4764C43.6304 58.0126 33.2356 56.0517 33.2356 56.0517" stroke="black" stroke-width="2" stroke-miterlimit="10" stroke-linecap="round"/>
<path id="Vector_13" d="M41.058 50.7597C41.058 50.7597 48.6907 44.9403 52.8865 51.076" stroke="black" stroke-width="2" stroke-miterlimit="10" stroke-linecap="round"/>
<path id="Vector_14" d="M45.9918 53.3949L54.6577 50.5063C55.4378 50.2532 56.2812 50.1689 57.0613 50.3798C58.0312 50.6328 59.1487 51.3075 59.8023 52.9732" stroke="black" stroke-width="2" stroke-miterlimit="10" stroke-linecap="round"/>
<path id="Vector_15" d="M47.5099 57.3592L61.2993 52.573C61.6578 52.4465 62.0373 52.3621 62.4168 52.341C63.703 52.2778 66.444 52.5308 67.6669 55.7146C67.7513 55.9465 67.6459 56.1996 67.435 56.305L43.061 67.754L41.4586 68.26C39.3712 68.9137 37.1151 68.9137 35.0277 68.26L19.91 63.5371C18.3497 63.0521 16.6629 63.0943 15.1237 63.6636L7.15369 66.5733" stroke="black" stroke-width="2" stroke-miterlimit="10" stroke-linecap="round"/>
</g>
</g>
</svg>
