<svg width="91" height="130" viewBox="0 0 91 130" fill="none" xmlns="http://www.w3.org/2000/svg">
<g id="Group 201">
<path id="Vector" d="M83.6575 10.0154C83.6575 10.0154 90.7098 44.9981 52.3802 62.9676C48.1568 64.9598 43.1763 64.9598 38.9529 62.9676C0.663093 45.038 7.71542 10.0154 7.71542 10.0154" stroke="#E400E4" stroke-width="2" stroke-linecap="round" stroke-linejoin="round"/>
<path id="Vector_2" d="M7.71562 118.908C7.71562 118.908 0.663291 83.9256 38.9929 65.9561C43.2164 63.9639 48.1968 63.9639 52.4202 65.9561C90.7499 83.8857 83.6975 118.908 83.6975 118.908" stroke="#E400E4" stroke-width="2" stroke-linecap="round" stroke-linejoin="round"/>
<path id="Vector_3" d="M12.7759 39.3009C12.7759 39.3009 26.1634 41.2134 41.9813 35.5954C65.0906 27.3876 79.5937 35.5954 79.5937 35.5954" stroke="#E400E4" stroke-width="2" stroke-linecap="round" stroke-linejoin="round"/>
<path id="Vector_4" d="M89.8733 119.984H1.5V128.75H89.8733V119.984Z" stroke="#E400E4" stroke-width="2" stroke-linecap="round" stroke-linejoin="round"/>
<path id="Vector_5" d="M89.8733 1.25H1.5V10.0156H89.8733V1.25Z" stroke="#E400E4" stroke-width="2" stroke-linecap="round" stroke-linejoin="round"/>
<path id="Vector_6" d="M16.9194 119.984C16.9194 113.49 29.7889 105.76 45.6866 105.76C61.5842 105.76 74.4537 113.49 74.4537 119.984" stroke="#E400E4" stroke-width="2" stroke-linecap="round" stroke-linejoin="round"/>
</g>
</svg>
