<svg width="69" height="69" viewBox="0 0 69 69" fill="none" xmlns="http://www.w3.org/2000/svg">
<g id="Group 410">
<path id="Vector" d="M53.2038 16.1846L14.228 37.4967C13.1719 38.0742 12.7838 39.3986 13.3614 40.4547L24.9038 61.5636C25.4813 62.6198 26.8056 63.0078 27.8618 62.4303L66.8376 41.1181C67.8938 40.5406 68.2818 39.2163 67.7043 38.1601L56.1619 17.0512C55.5844 15.9951 54.26 15.607 53.2038 16.1846Z" stroke="black" stroke-width="2" stroke-miterlimit="10"/>
<path id="Vector_2" d="M26.5333 56.9439L32.0965 53.9132" stroke="black" stroke-width="2" stroke-miterlimit="10" stroke-linecap="round"/>
<path id="Vector_3" d="M35.9573 51.7954L41.5204 48.744" stroke="black" stroke-width="2" stroke-miterlimit="10" stroke-linecap="round"/>
<path id="Vector_4" d="M15.5939 44.489L58.4798 21.0325" stroke="black" stroke-width="2" stroke-miterlimit="10"/>
<path id="Vector_5" d="M46.0457 53.913V67.4264H1.25V1.25H46.0457V20.119" stroke="black" stroke-width="2" stroke-linecap="round" stroke-linejoin="round"/>
<path id="Vector_6" d="M2.55774 55.3246H20.3681" stroke="black" stroke-width="2" stroke-linecap="round" stroke-linejoin="round"/>
<path id="Vector_7" d="M27.1144 10.8197H37.8047" stroke="black" stroke-width="2" stroke-linecap="round" stroke-linejoin="round"/>
<path id="Vector_8" d="M27.1144 17.566H37.8047" stroke="black" stroke-width="2" stroke-linecap="round" stroke-linejoin="round"/>
<path id="Vector_9" d="M14.5144 8.28684C16.2581 8.78503 17.379 9.86444 17.981 11.5043C18.3131 12.3762 18.1263 12.9574 17.4413 13.2272C16.7978 13.4763 16.2788 13.1857 15.9675 12.3346C15.1371 10.0098 12.6047 9.98899 11.5253 11.1722C11.2346 11.4836 10.9856 11.878 10.8818 12.2724C10.5289 13.4141 10.8402 13.9745 12.0027 14.2029C13.0406 14.4104 14.12 14.4727 15.1579 14.6803C17.8564 15.1992 18.9774 17.3788 17.898 19.9321C17.3583 21.2398 16.3826 22.1532 15.0541 22.6098C14.639 22.7551 14.4936 22.9212 14.4936 23.3571C14.4936 24.2497 14.12 24.7272 13.4142 24.7272C12.7292 24.7272 12.3141 24.2497 12.3348 23.3571C12.3348 22.9212 12.2103 22.7344 11.7951 22.5683C10.2798 22.0286 9.34567 20.8869 8.80596 19.3924C8.53611 18.6243 8.78521 18.0431 9.4287 17.8147C10.0514 17.5864 10.5289 17.8563 10.8402 18.6035C11.5253 20.2434 12.6669 20.9492 14.0992 20.5963C14.8465 20.4095 15.4278 19.9943 15.7599 19.2886C16.2996 18.1469 16.3826 17.0467 14.639 16.7976C13.6011 16.6523 12.5632 16.5693 11.546 16.3409C9.01354 15.8012 7.95489 13.7669 8.84748 11.3175C9.38719 9.8852 10.3836 8.90958 11.8159 8.43214C12.231 8.28684 12.3556 8.10002 12.3141 7.70561C12.2933 7.47728 12.2933 7.24894 12.3141 7.0206C12.3971 6.41862 12.75 6.06573 13.352 6.02422C13.9332 5.9827 14.4106 6.39786 14.4521 6.99984C14.4936 7.415 14.4521 7.8094 14.4521 8.28684H14.5144Z" fill="black"/>
</g>
</svg>
