<svg width="62" height="70" viewBox="0 0 62 70" fill="none" xmlns="http://www.w3.org/2000/svg">
<g id="Group 438">
<path id="Vector" d="M1.78894 15.4855V66.071C1.78894 67.5476 2.99135 68.75 4.46799 68.75H46.932C48.4086 68.75 49.611 67.5476 49.611 66.071V57.8651" stroke="black" stroke-width="2" stroke-linecap="round" stroke-linejoin="round"/>
<path id="Vector_2" d="M13.0957 9.36817L44.9279 1.33102C46.3623 0.97241 47.8179 1.8373 48.1765 3.27175L60.5592 52.3173C60.9178 53.7518 60.0529 55.2073 58.6184 55.566L17.4623 65.9657C16.0279 66.3243 14.5723 65.4595 14.2137 64.025L1.83102 14.9583C1.47241 13.5239 2.3373 12.0683 3.77175 11.7097L6.61956 10.9925" stroke="black" stroke-width="2" stroke-linecap="round" stroke-linejoin="round"/>
<path id="Vector_3" d="M27.4191 15.5908C28.7269 15.633 29.6762 16.2025 30.3934 17.2151C30.7731 17.7635 30.7521 18.2065 30.3091 18.5019C29.9083 18.7761 29.4864 18.6706 29.1277 18.1433C28.1574 16.6666 26.3854 17.1096 25.8369 18.1222C25.6893 18.3964 25.5838 18.7128 25.5838 19.0081C25.5416 19.873 25.858 20.1895 26.7018 20.1473C27.4613 20.1051 28.2207 19.9785 28.9801 19.9363C30.9419 19.8308 32.1021 21.1387 31.8068 23.1005C31.6591 24.1131 31.1318 24.9147 30.3091 25.4632C30.0559 25.6319 29.9715 25.7796 30.0559 26.096C30.2247 26.7078 30.0348 27.1086 29.5496 27.2351C29.0645 27.3617 28.7059 27.0875 28.5582 26.4757C28.4949 26.1804 28.3683 26.0538 28.0519 26.0327C26.9128 25.9273 26.0479 25.2944 25.4151 24.3451C25.0986 23.86 25.1619 23.417 25.5627 23.1427C25.9635 22.8685 26.3432 22.974 26.6807 23.4381C27.4402 24.4717 28.3683 24.7459 29.2965 24.2397C29.7817 23.9865 30.1192 23.5857 30.2247 23.0373C30.3934 22.1513 30.2669 21.3708 29.0012 21.4973C28.2629 21.5817 27.5245 21.7083 26.7651 21.7294C24.9088 21.7927 23.8118 20.5692 24.0017 18.7128C24.1072 17.6159 24.6556 16.7721 25.5627 16.1814C25.8369 16.0127 25.8791 15.865 25.7737 15.5908C25.7104 15.4431 25.6682 15.2744 25.6682 15.1056C25.626 14.6626 25.7948 14.3673 26.2167 14.2407C26.6175 14.1141 27.0183 14.304 27.1659 14.7259C27.2714 15.0001 27.3136 15.2954 27.398 15.6119L27.4191 15.5908Z" fill="black"/>
<path id="Vector_4" d="M14.5303 38.6264L48.2188 30.1251" stroke="black" stroke-width="2" stroke-linecap="round" stroke-linejoin="round"/>
<path id="Vector_5" d="M16.3444 45.799L50.0329 37.2977" stroke="black" stroke-width="2" stroke-linecap="round" stroke-linejoin="round"/>
<path id="Vector_6" d="M18.1586 52.9921L51.8471 44.4697" stroke="black" stroke-width="2" stroke-linecap="round" stroke-linejoin="round"/>
<path id="Vector_7" d="M9.80477 13.6291V7.57486C9.80477 6.85764 10.3743 5.99275 11.4291 5.99275C12.4838 5.99275 12.8846 6.87873 12.8846 7.57486V16.055C12.8846 17.7215 11.5345 19.0505 9.88915 19.0505C8.22265 19.0505 6.89368 17.7004 6.89368 16.055V7.4061C6.89368 4.89581 8.93988 2.84961 11.4502 2.84961C13.9605 2.84961 16.0067 4.89581 16.0067 7.4061" stroke="black" stroke-width="2" stroke-linecap="round" stroke-linejoin="round"/>
</g>
</svg>
