<svg width="326" height="32" viewBox="0 0 326 32" fill="none" xmlns="http://www.w3.org/2000/svg">
<path d="M13.074 8.258V11.135H9.16799V23H5.57699V11.135H1.67099V8.258H13.074ZM20.2102 23.168C19.0622 23.168 18.0262 22.923 17.1022 22.433C16.1922 21.943 15.4712 21.243 14.9392 20.333C14.4212 19.423 14.1622 18.359 14.1622 17.141C14.1622 15.937 14.4282 14.88 14.9602 13.97C15.4922 13.046 16.2202 12.339 17.1442 11.849C18.0682 11.359 19.1042 11.114 20.2522 11.114C21.4002 11.114 22.4362 11.359 23.3602 11.849C24.2842 12.339 25.0122 13.046 25.5442 13.97C26.0762 14.88 26.3422 15.937 26.3422 17.141C26.3422 18.345 26.0692 19.409 25.5232 20.333C24.9912 21.243 24.2562 21.943 23.3182 22.433C22.3942 22.923 21.3582 23.168 20.2102 23.168ZM20.2102 20.06C20.8962 20.06 21.4772 19.808 21.9532 19.304C22.4432 18.8 22.6882 18.079 22.6882 17.141C22.6882 16.203 22.4502 15.482 21.9742 14.978C21.5122 14.474 20.9382 14.222 20.2522 14.222C19.5522 14.222 18.9712 14.474 18.5092 14.978C18.0472 15.468 17.8162 16.189 17.8162 17.141C17.8162 18.079 18.0402 18.8 18.4882 19.304C18.9502 19.808 19.5242 20.06 20.2102 20.06ZM27.5333 17.162C27.5333 16 27.7713 14.964 28.2473 14.054C28.7373 13.144 29.3883 12.437 30.2003 11.933C31.0263 11.415 31.9223 11.156 32.8883 11.156C33.6303 11.156 34.2953 11.289 34.8833 11.555C35.4713 11.807 35.9473 12.164 36.3113 12.626V11.282H39.9023V28.586H36.3113V21.53C35.9053 22.02 35.4083 22.412 34.8203 22.706C34.2463 23 33.5883 23.147 32.8463 23.147C31.8943 23.147 31.0123 22.895 30.2003 22.391C29.3883 21.887 28.7373 21.18 28.2473 20.27C27.7713 19.36 27.5333 18.324 27.5333 17.162ZM36.3113 17.141C36.3113 16.511 36.1853 15.986 35.9333 15.566C35.6953 15.132 35.3803 14.81 34.9883 14.6C34.5963 14.376 34.1833 14.264 33.7493 14.264C33.3293 14.264 32.9233 14.376 32.5313 14.6C32.1393 14.81 31.8173 15.132 31.5653 15.566C31.3133 16 31.1873 16.532 31.1873 17.162C31.1873 17.792 31.3133 18.324 31.5653 18.758C31.8173 19.178 32.1393 19.5 32.5313 19.724C32.9233 19.934 33.3293 20.039 33.7493 20.039C34.1693 20.039 34.5753 19.934 34.9673 19.724C35.3733 19.5 35.6953 19.171 35.9333 18.737C36.1853 18.303 36.3113 17.771 36.3113 17.141ZM54.0712 11.282V23H50.4802V21.404C50.1162 21.922 49.6192 22.342 48.9892 22.664C48.3732 22.972 47.6872 23.126 46.9312 23.126C46.0352 23.126 45.2442 22.93 44.5582 22.538C43.8722 22.132 43.3402 21.551 42.9622 20.795C42.5842 20.039 42.3952 19.15 42.3952 18.128V11.282H45.9652V17.645C45.9652 18.429 46.1682 19.038 46.5742 19.472C46.9802 19.906 47.5262 20.123 48.2122 20.123C48.9122 20.123 49.4652 19.906 49.8712 19.472C50.2772 19.038 50.4802 18.429 50.4802 17.645V11.282H54.0712ZM67.6966 16.952C67.6966 17.288 67.6756 17.638 67.6336 18.002H59.5066C59.5626 18.73 59.7936 19.29 60.1996 19.682C60.6196 20.06 61.1306 20.249 61.7326 20.249C62.6286 20.249 63.2516 19.871 63.6016 19.115H67.4236C67.2276 19.885 66.8706 20.578 66.3526 21.194C65.8486 21.81 65.2116 22.293 64.4416 22.643C63.6716 22.993 62.8106 23.168 61.8586 23.168C60.7106 23.168 59.6886 22.923 58.7926 22.433C57.8966 21.943 57.1966 21.243 56.6926 20.333C56.1886 19.423 55.9366 18.359 55.9366 17.141C55.9366 15.923 56.1816 14.859 56.6716 13.949C57.1756 13.039 57.8756 12.339 58.7716 11.849C59.6676 11.359 60.6966 11.114 61.8586 11.114C62.9926 11.114 64.0006 11.352 64.8826 11.828C65.7646 12.304 66.4506 12.983 66.9406 13.865C67.4446 14.747 67.6966 15.776 67.6966 16.952ZM64.0216 16.007C64.0216 15.391 63.8116 14.901 63.3916 14.537C62.9716 14.173 62.4466 13.991 61.8166 13.991C61.2146 13.991 60.7036 14.166 60.2836 14.516C59.8776 14.866 59.6256 15.363 59.5276 16.007H64.0216ZM81.1813 11.156C82.5533 11.156 83.6453 11.604 84.4573 12.5C85.2833 13.382 85.6963 14.6 85.6963 16.154V23H82.1263V16.637C82.1263 15.853 81.9233 15.244 81.5173 14.81C81.1113 14.376 80.5653 14.159 79.8793 14.159C79.1933 14.159 78.6473 14.376 78.2413 14.81C77.8353 15.244 77.6323 15.853 77.6323 16.637V23H74.0413V11.282H77.6323V12.836C77.9963 12.318 78.4863 11.912 79.1023 11.618C79.7183 11.31 80.4113 11.156 81.1813 11.156ZM87.4776 17.12C87.4776 15.916 87.7016 14.859 88.1496 13.949C88.6116 13.039 89.2346 12.339 90.0186 11.849C90.8026 11.359 91.6776 11.114 92.6436 11.114C93.4696 11.114 94.1906 11.282 94.8066 11.618C95.4366 11.954 95.9196 12.395 96.2556 12.941V11.282H99.8466V23H96.2556V21.341C95.9056 21.887 95.4156 22.328 94.7856 22.664C94.1696 23 93.4486 23.168 92.6226 23.168C91.6706 23.168 90.8026 22.923 90.0186 22.433C89.2346 21.929 88.6116 21.222 88.1496 20.312C87.7016 19.388 87.4776 18.324 87.4776 17.12ZM96.2556 17.141C96.2556 16.245 96.0036 15.538 95.4996 15.02C95.0096 14.502 94.4076 14.243 93.6936 14.243C92.9796 14.243 92.3706 14.502 91.8666 15.02C91.3766 15.524 91.1316 16.224 91.1316 17.12C91.1316 18.016 91.3766 18.73 91.8666 19.262C92.3706 19.78 92.9796 20.039 93.6936 20.039C94.4076 20.039 95.0096 19.78 95.4996 19.262C96.0036 18.744 96.2556 18.037 96.2556 17.141ZM113.426 19.955V23H111.599C110.297 23 109.282 22.685 108.554 22.055C107.826 21.411 107.462 20.368 107.462 18.926V14.264H106.034V11.282H107.462V8.426H111.053V11.282H113.405V14.264H111.053V18.968C111.053 19.318 111.137 19.57 111.305 19.724C111.473 19.878 111.753 19.955 112.145 19.955H113.426ZM126.472 16.952C126.472 17.288 126.451 17.638 126.409 18.002H118.282C118.338 18.73 118.569 19.29 118.975 19.682C119.395 20.06 119.906 20.249 120.508 20.249C121.404 20.249 122.027 19.871 122.377 19.115H126.199C126.003 19.885 125.646 20.578 125.128 21.194C124.624 21.81 123.987 22.293 123.217 22.643C122.447 22.993 121.586 23.168 120.634 23.168C119.486 23.168 118.464 22.923 117.568 22.433C116.672 21.943 115.972 21.243 115.468 20.333C114.964 19.423 114.712 18.359 114.712 17.141C114.712 15.923 114.957 14.859 115.447 13.949C115.951 13.039 116.651 12.339 117.547 11.849C118.443 11.359 119.472 11.114 120.634 11.114C121.768 11.114 122.776 11.352 123.658 11.828C124.54 12.304 125.226 12.983 125.716 13.865C126.22 14.747 126.472 15.776 126.472 16.952ZM122.797 16.007C122.797 15.391 122.587 14.901 122.167 14.537C121.747 14.173 121.222 13.991 120.592 13.991C119.99 13.991 119.479 14.166 119.059 14.516C118.653 14.866 118.401 15.363 118.303 16.007H122.797ZM131.957 7.46V23H128.366V7.46H131.957ZM133.846 17.12C133.846 15.916 134.07 14.859 134.518 13.949C134.98 13.039 135.603 12.339 136.387 11.849C137.171 11.359 138.046 11.114 139.012 11.114C139.838 11.114 140.559 11.282 141.175 11.618C141.805 11.954 142.288 12.395 142.624 12.941V11.282H146.215V23H142.624V21.341C142.274 21.887 141.784 22.328 141.154 22.664C140.538 23 139.817 23.168 138.991 23.168C138.039 23.168 137.171 22.923 136.387 22.433C135.603 21.929 134.98 21.222 134.518 20.312C134.07 19.388 133.846 18.324 133.846 17.12ZM142.624 17.141C142.624 16.245 142.372 15.538 141.868 15.02C141.378 14.502 140.776 14.243 140.062 14.243C139.348 14.243 138.739 14.502 138.235 15.02C137.745 15.524 137.5 16.224 137.5 17.12C137.5 18.016 137.745 18.73 138.235 19.262C138.739 19.78 139.348 20.039 140.062 20.039C140.776 20.039 141.378 19.78 141.868 19.262C142.372 18.744 142.624 18.037 142.624 17.141ZM156.854 12.941C157.204 12.395 157.687 11.954 158.303 11.618C158.919 11.282 159.64 11.114 160.466 11.114C161.432 11.114 162.307 11.359 163.091 11.849C163.875 12.339 164.491 13.039 164.939 13.949C165.401 14.859 165.632 15.916 165.632 17.12C165.632 18.324 165.401 19.388 164.939 20.312C164.491 21.222 163.875 21.929 163.091 22.433C162.307 22.923 161.432 23.168 160.466 23.168C159.654 23.168 158.933 23 158.303 22.664C157.687 22.328 157.204 21.894 156.854 21.362V28.586H153.263V11.282H156.854V12.941ZM161.978 17.12C161.978 16.224 161.726 15.524 161.222 15.02C160.732 14.502 160.123 14.243 159.395 14.243C158.681 14.243 158.072 14.502 157.568 15.02C157.078 15.538 156.833 16.245 156.833 17.141C156.833 18.037 157.078 18.744 157.568 19.262C158.072 19.78 158.681 20.039 159.395 20.039C160.109 20.039 160.718 19.78 161.222 19.262C161.726 18.73 161.978 18.016 161.978 17.12ZM166.802 17.12C166.802 15.916 167.026 14.859 167.474 13.949C167.936 13.039 168.559 12.339 169.343 11.849C170.127 11.359 171.002 11.114 171.968 11.114C172.794 11.114 173.515 11.282 174.131 11.618C174.761 11.954 175.244 12.395 175.58 12.941V11.282H179.171V23H175.58V21.341C175.23 21.887 174.74 22.328 174.11 22.664C173.494 23 172.773 23.168 171.947 23.168C170.995 23.168 170.127 22.923 169.343 22.433C168.559 21.929 167.936 21.222 167.474 20.312C167.026 19.388 166.802 18.324 166.802 17.12ZM175.58 17.141C175.58 16.245 175.328 15.538 174.824 15.02C174.334 14.502 173.732 14.243 173.018 14.243C172.304 14.243 171.695 14.502 171.191 15.02C170.701 15.524 170.456 16.224 170.456 17.12C170.456 18.016 170.701 18.73 171.191 19.262C171.695 19.78 172.304 20.039 173.018 20.039C173.732 20.039 174.334 19.78 174.824 19.262C175.328 18.744 175.58 18.037 175.58 17.141ZM185.36 13.235C185.78 12.591 186.305 12.087 186.935 11.723C187.565 11.345 188.265 11.156 189.035 11.156V14.957H188.048C187.152 14.957 186.48 15.153 186.032 15.545C185.584 15.923 185.36 16.595 185.36 17.561V23H181.769V11.282H185.36V13.235ZM190.037 17.12C190.037 15.916 190.261 14.859 190.709 13.949C191.171 13.039 191.794 12.339 192.578 11.849C193.362 11.359 194.237 11.114 195.203 11.114C196.029 11.114 196.75 11.282 197.366 11.618C197.996 11.954 198.479 12.395 198.815 12.941V11.282H202.406V23H198.815V21.341C198.465 21.887 197.975 22.328 197.345 22.664C196.729 23 196.008 23.168 195.182 23.168C194.23 23.168 193.362 22.923 192.578 22.433C191.794 21.929 191.171 21.222 190.709 20.312C190.261 19.388 190.037 18.324 190.037 17.12ZM198.815 17.141C198.815 16.245 198.563 15.538 198.059 15.02C197.569 14.502 196.967 14.243 196.253 14.243C195.539 14.243 194.93 14.502 194.426 15.02C193.936 15.524 193.691 16.224 193.691 17.12C193.691 18.016 193.936 18.73 194.426 19.262C194.93 19.78 195.539 20.039 196.253 20.039C196.967 20.039 197.569 19.78 198.059 19.262C198.563 18.744 198.815 18.037 198.815 17.141ZM211.26 10.064C210.63 10.064 210.112 9.882 209.706 9.518C209.314 9.14 209.118 8.678 209.118 8.132C209.118 7.572 209.314 7.11 209.706 6.746C210.112 6.368 210.63 6.179 211.26 6.179C211.876 6.179 212.38 6.368 212.772 6.746C213.178 7.11 213.381 7.572 213.381 8.132C213.381 8.678 213.178 9.14 212.772 9.518C212.38 9.882 211.876 10.064 211.26 10.064ZM213.045 11.282V23H209.454V11.282H213.045ZM222.788 11.156C224.16 11.156 225.252 11.604 226.064 12.5C226.89 13.382 227.303 14.6 227.303 16.154V23H223.733V16.637C223.733 15.853 223.53 15.244 223.124 14.81C222.718 14.376 222.172 14.159 221.486 14.159C220.8 14.159 220.254 14.376 219.848 14.81C219.442 15.244 219.239 15.853 219.239 16.637V23H215.648V11.282H219.239V12.836C219.603 12.318 220.093 11.912 220.709 11.618C221.325 11.31 222.018 11.156 222.788 11.156ZM231.604 10.064C230.974 10.064 230.456 9.882 230.05 9.518C229.658 9.14 229.462 8.678 229.462 8.132C229.462 7.572 229.658 7.11 230.05 6.746C230.456 6.368 230.974 6.179 231.604 6.179C232.22 6.179 232.724 6.368 233.116 6.746C233.522 7.11 233.725 7.572 233.725 8.132C233.725 8.678 233.522 9.14 233.116 9.518C232.724 9.882 232.22 10.064 231.604 10.064ZM233.389 11.282V23H229.798V11.282H233.389ZM235.277 17.141C235.277 15.923 235.522 14.859 236.012 13.949C236.516 13.039 237.209 12.339 238.091 11.849C238.987 11.359 240.009 11.114 241.157 11.114C242.627 11.114 243.852 11.499 244.832 12.269C245.826 13.039 246.477 14.124 246.785 15.524H242.963C242.641 14.628 242.018 14.18 241.094 14.18C240.436 14.18 239.911 14.439 239.519 14.957C239.127 15.461 238.931 16.189 238.931 17.141C238.931 18.093 239.127 18.828 239.519 19.346C239.911 19.85 240.436 20.102 241.094 20.102C242.018 20.102 242.641 19.654 242.963 18.758H246.785C246.477 20.13 245.826 21.208 244.832 21.992C243.838 22.776 242.613 23.168 241.157 23.168C240.009 23.168 238.987 22.923 238.091 22.433C237.209 21.943 236.516 21.243 236.012 20.333C235.522 19.423 235.277 18.359 235.277 17.141ZM250.512 10.064C249.882 10.064 249.364 9.882 248.958 9.518C248.566 9.14 248.37 8.678 248.37 8.132C248.37 7.572 248.566 7.11 248.958 6.746C249.364 6.368 249.882 6.179 250.512 6.179C251.128 6.179 251.632 6.368 252.024 6.746C252.43 7.11 252.633 7.572 252.633 8.132C252.633 8.678 252.43 9.14 252.024 9.518C251.632 9.882 251.128 10.064 250.512 10.064ZM252.297 11.282V23H248.706V11.282H252.297ZM254.186 17.12C254.186 15.916 254.41 14.859 254.858 13.949C255.32 13.039 255.943 12.339 256.727 11.849C257.511 11.359 258.386 11.114 259.352 11.114C260.178 11.114 260.899 11.282 261.515 11.618C262.145 11.954 262.628 12.395 262.964 12.941V11.282H266.555V23H262.964V21.341C262.614 21.887 262.124 22.328 261.494 22.664C260.878 23 260.157 23.168 259.331 23.168C258.379 23.168 257.511 22.923 256.727 22.433C255.943 21.929 255.32 21.222 254.858 20.312C254.41 19.388 254.186 18.324 254.186 17.12ZM262.964 17.141C262.964 16.245 262.712 15.538 262.208 15.02C261.718 14.502 261.116 14.243 260.402 14.243C259.688 14.243 259.079 14.502 258.575 15.02C258.085 15.524 257.84 16.224 257.84 17.12C257.84 18.016 258.085 18.73 258.575 19.262C259.079 19.78 259.688 20.039 260.402 20.039C261.116 20.039 261.718 19.78 262.208 19.262C262.712 18.744 262.964 18.037 262.964 17.141ZM272.744 13.235C273.164 12.591 273.689 12.087 274.319 11.723C274.949 11.345 275.649 11.156 276.419 11.156V14.957H275.432C274.536 14.957 273.864 15.153 273.416 15.545C272.968 15.923 272.744 16.595 272.744 17.561V23H269.153V11.282H272.744V13.235Z" fill="black"/>
<g clip-path="url(#clip0_4_13)">
<path d="M305.106 15.9995L314.885 15.9995" stroke="black" stroke-width="2" stroke-linecap="round" stroke-linejoin="round"/>
<path d="M311.275 19.6084L314.894 15.999L311.275 12.3896" stroke="black" stroke-width="2" stroke-linecap="round" stroke-linejoin="round"/>
<path d="M310 0.999999C318.287 0.999999 325 7.7125 325 16C325 24.2875 318.288 31 310 31C301.712 31 295 24.2875 295 16C295 7.7125 301.712 1 310 0.999999Z" stroke="black" stroke-width="2" stroke-linecap="round" stroke-linejoin="round"/>
</g>
<defs>
<clipPath id="clip0_4_13">
<rect width="32" height="32" fill="white" transform="translate(294 32) rotate(-90)"/>
</clipPath>
</defs>
</svg>
