<svg width="130" height="129" viewBox="0 0 130 129" fill="none" xmlns="http://www.w3.org/2000/svg">
<g id="Group 498">
<path id="Vector" d="M101.457 54.8V19.618C101.457 17.7852 100.78 16.032 99.6241 14.757L89.1053 3.28203C87.91 2.00703 86.3163 1.25 84.6428 1.25H33.8022C30.8936 1.25 28.5428 3.83984 28.5428 7.02734V54.8" stroke="#E400E4" stroke-width="2" stroke-linecap="round"/>
<path id="Vector_2" d="M100.302 21.7695H87.9899C86.3164 21.7695 85.0016 20.0961 85.0016 18.0242V2.20621" stroke="#E400E4" stroke-width="2" stroke-linecap="round"/>
<path id="Vector_3" d="M23.4031 108.749H6.35C3.52109 108.749 1.25 106.478 1.25 103.649V70.7379C1.25 62.291 8.10313 55.4379 16.55 55.4379H113.45C121.897 55.4379 128.75 62.291 128.75 70.7379V103.649C128.75 106.478 126.479 108.749 123.65 108.749H106.796" stroke="#E400E4" stroke-width="2" stroke-linecap="round"/>
<path id="Vector_4" d="M19.4985 96.8746C17.7055 96.8746 16.2313 95.4003 16.2313 93.6074V86.7543C16.2313 84.9613 17.7055 83.4871 19.4985 83.4871H110.541C112.334 83.4871 113.809 84.9613 113.809 86.7543V93.6074C113.809 95.4003 112.334 96.8746 110.541 96.8746" stroke="#E400E4" stroke-width="2" stroke-linecap="round"/>
<path id="Vector_5" d="M103.051 84.0056L108.788 121.857C109.267 125.084 106.756 127.993 103.489 127.993H26.5111C23.204 127.993 20.6939 125.005 21.2517 121.777L27.5868 84.0056" stroke="#E400E4" stroke-width="2" stroke-linecap="round"/>
<path id="Vector_6" d="M108.828 71.8931C111.227 71.8931 113.171 69.9487 113.171 67.5502C113.171 65.1516 111.227 63.2072 108.828 63.2072C106.43 63.2072 104.485 65.1516 104.485 67.5502C104.485 69.9487 106.43 71.8931 108.828 71.8931Z" stroke="#E400E4" stroke-width="2" stroke-linecap="round"/>
</g>
</svg>
