<svg width="58" height="58" viewBox="0 0 58 58" fill="none" xmlns="http://www.w3.org/2000/svg">
<path d="M28.8697 11.3962C30.0709 11.3962 31.0447 10.4224 31.0447 9.22115C31.0447 8.01993 30.0709 7.04614 28.8697 7.04614C27.6685 7.04614 26.6947 8.01993 26.6947 9.22115C26.6947 10.4224 27.6685 11.3962 28.8697 11.3962Z" stroke="black" stroke-width="2" stroke-linecap="round" stroke-linejoin="round"/>
<path d="M28.8697 14.4717C31.7696 14.4717 34.1203 12.1209 34.1203 9.22106C34.1203 6.32123 31.7696 3.97046 28.8697 3.97046C25.9699 3.97046 23.6191 6.32123 23.6191 9.22106C23.6191 12.1209 25.9699 14.4717 28.8697 14.4717Z" stroke="black" stroke-width="2" stroke-linecap="round" stroke-linejoin="round"/>
<path d="M33.2198 12.4838L39.5919 11.8381C41.2742 11.6342 41.2742 9.20435 39.5919 9.00044L34.1034 8.35474" stroke="black" stroke-width="2" stroke-linecap="round" stroke-linejoin="round"/>
<path d="M24.3498 12.4838L17.9777 11.8381C16.2955 11.6342 16.2955 9.20435 17.9777 9.00044L23.4662 8.35474" stroke="black" stroke-width="2" stroke-linecap="round" stroke-linejoin="round"/>
<path d="M19.0313 5.04102H12.4893C11.5887 5.04102 10.875 4.31036 10.875 3.42676C10.875 2.52617 11.6057 1.8125 12.4893 1.8125H17.7059L19.0483 5.04102H19.0313Z" stroke="black" stroke-width="2" stroke-linecap="round" stroke-linejoin="round"/>
<path d="M17.9778 1.8125L20.5436 7.94669" stroke="black" stroke-width="2" stroke-linecap="round" stroke-linejoin="round"/>
<path d="M38.8102 5.04102H45.3522C46.2528 5.04102 46.9665 4.31036 46.9665 3.42676C46.9665 2.52617 46.2358 1.8125 45.3522 1.8125H40.1356L38.7932 5.04102H38.8102Z" stroke="black" stroke-width="2" stroke-linecap="round" stroke-linejoin="round"/>
<path d="M39.8638 1.8125L37.3149 7.94669" stroke="black" stroke-width="2" stroke-linecap="round" stroke-linejoin="round"/>
<path d="M16.4994 10.4277H11.7246" stroke="black" stroke-width="2" stroke-linecap="round" stroke-linejoin="round"/>
<path d="M45.6411 10.4277H40.8663" stroke="black" stroke-width="2" stroke-linecap="round" stroke-linejoin="round"/>
<path d="M22.7526 44.2929L20.3227 42.9505C18.9463 42.1858 18.0797 40.7245 18.0797 39.1612V23.4774C18.0797 18.5157 22.1069 14.4885 27.0686 14.4885H30.62C35.5817 14.4885 39.6089 18.5157 39.6089 23.4774V39.1442C39.6089 40.7415 38.7422 42.2028 37.3489 42.9505L34.919 44.2759" stroke="black" stroke-width="2" stroke-linecap="round" stroke-linejoin="round"/>
<path d="M28.8697 34.8962C31.7754 34.8962 34.3412 36.7824 35.1908 39.5521C35.4797 40.5037 35.4797 41.5402 35.1908 42.4918L34.2732 45.4484C33.9674 46.4679 33.0328 47.1476 31.9623 47.1476H25.7601C24.7066 47.1476 23.772 46.451 23.4492 45.4484L22.5316 42.4918C22.2427 41.5402 22.2427 40.5037 22.5316 39.5521C23.3812 36.7824 25.947 34.8962 28.8527 34.8962H28.8697Z" stroke="black" stroke-width="2" stroke-linecap="round" stroke-linejoin="round"/>
<path d="M32.3191 14.8455L31.5545 24.8199C31.5035 25.4826 30.9598 25.9924 30.2971 25.9924H27.4933C26.8306 25.9924 26.2869 25.4826 26.2359 24.8369L25.4203 14.8625" stroke="black" stroke-width="2" stroke-linecap="round" stroke-linejoin="round"/>
<path d="M28.8698 15.0664V18.227" stroke="black" stroke-width="2" stroke-linecap="round" stroke-linejoin="round"/>
<path d="M31.4356 47.1646V53.6216C31.4356 55.0489 30.2801 56.1874 28.8698 56.1874C27.4424 56.1874 26.304 55.0319 26.304 53.6216V47.1646" stroke="black" stroke-width="2" stroke-linecap="round" stroke-linejoin="round"/>
<path d="M33.4917 46.6211L34.1204 51.6848H37.6208" stroke="black" stroke-width="2" stroke-linecap="round" stroke-linejoin="round"/>
<path d="M24.2309 46.6211L23.6192 51.6848H20.1018" stroke="black" stroke-width="2" stroke-linecap="round" stroke-linejoin="round"/>
</svg>
