<svg width="54" height="58" viewBox="0 0 54 58" fill="none" xmlns="http://www.w3.org/2000/svg">
<g id="Group 394">
<path id="Vector" d="M1.62814 56.1875C1.62814 56.1875 1.11836 47.1135 13.0812 43.511C13.0812 43.511 21.7134 41.319 21.7814 37.6316V33.5364" stroke="black" stroke-width="2" stroke-linecap="round" stroke-linejoin="round"/>
<path id="Vector_2" d="M52.6569 56.1875C52.6569 56.1875 53.1667 47.1135 41.2039 43.511C41.2039 43.511 32.5716 41.319 32.5037 37.6316V33.5364" stroke="black" stroke-width="2" stroke-linecap="round" stroke-linejoin="round"/>
<path id="Vector_3" d="M38.808 42.8142C38.808 42.8142 35.8003 50.6138 27.0321 50.308C18.2639 50.6138 15.2562 42.8142 15.2562 42.8142" stroke="black" stroke-width="2" stroke-linecap="round" stroke-linejoin="round"/>
<path id="Vector_4" d="M39.5556 18.3791C41.1019 24.0547 37.0747 25.3971 37.0747 25.3971C37.0747 25.3971 35.5283 33.1627 28.4254 35.3548C27.5248 35.6436 26.5392 35.6436 25.6216 35.3548C18.5187 33.1457 16.9724 25.3971 16.9724 25.3971C16.9724 25.3971 12.9451 24.0547 14.4915 18.3791C14.4915 18.3791 17.4822 19.3137 19.6402 14.3689C21.7983 9.42404 19.8441 6.85815 25.0099 10.1377C25.0099 10.1377 27.2699 7.28297 29.9887 10.1377C32.7076 12.9925 34.5088 17.5125 39.5386 18.3791H39.5556Z" stroke="black" stroke-width="2" stroke-linecap="round" stroke-linejoin="round"/>
<path id="Vector_5" d="M35.6644 35.0489C35.6644 35.0489 42.4614 37.105 45.3502 34.2163C48.2389 31.3275 43.5999 22.1175 43.5999 22.1175C45.9789 13.2134 38.859 9.27109 38.859 9.27109C35.1376 -1.38329 27.7968 2.13419 25.7577 3.35765C25.4348 3.56157 25.027 3.56157 24.7041 3.37465C23.0729 2.49103 18.06 0.621843 15.2223 9.27109C15.2223 9.27109 8.10235 13.2134 10.4813 22.1175C10.4813 22.1175 5.84234 31.3275 8.73108 34.2163C11.6198 37.105 18.4169 35.0489 18.4169 35.0489" stroke="black" stroke-width="2" stroke-linecap="round" stroke-linejoin="round"/>
</g>
</svg>
