<svg width="70" height="57" viewBox="0 0 70 57" fill="none" xmlns="http://www.w3.org/2000/svg">
<g id="Group 194">
<path id="Vector" d="M56.2365 23.426H2.17804C1.6655 23.426 1.25 23.8415 1.25 24.3541V55.0638C1.25 55.5764 1.6655 55.9919 2.17804 55.9919H56.2365C56.749 55.9919 57.1645 55.5764 57.1645 55.0638V24.3541C57.1645 23.8415 56.749 23.426 56.2365 23.426Z" stroke="#1B1B1B" stroke-width="2" stroke-linecap="round" stroke-linejoin="round"/>
<path id="Vector_2" d="M9.83496 23.5104L13.6948 2.524C13.8846 1.5116 14.8337 0.857748 15.8461 1.02648L67.2259 10.328C68.2383 10.5178 68.8922 11.467 68.7234 12.4794L63.5981 40.9112C63.4083 41.9236 62.4591 42.5774 61.4467 42.4087L57.1651 41.4174" stroke="#1B1B1B" stroke-width="2" stroke-miterlimit="10"/>
<path id="Vector_3" d="M12.7021 8.70398L67.6886 18.7648" stroke="#1B1B1B" stroke-width="2" stroke-miterlimit="10"/>
<g id="Group">
<path id="Vector_4" d="M31.8745 44.8128H40.248V43.02H33.4564L31.8745 44.8128Z" fill="#1B1B1B"/>
<path id="Vector_5" d="M27.9088 39.8141C27.9088 41.7757 26.7487 43.1677 24.8504 43.1677C22.9522 43.1677 21.771 41.7757 21.771 39.8141V34.6466H19.936V39.8774C19.936 42.6826 21.9609 44.9605 24.8504 44.9605C27.74 44.9605 29.7648 42.7037 29.7648 39.8774V34.6466H27.9088V39.8141Z" fill="#1B1B1B"/>
<path id="Vector_6" d="M45.478 34.4569C42.7149 34.4569 40.3315 36.8192 40.3315 39.6877C40.3315 42.5562 42.8204 44.8763 45.7522 44.8763H45.8365V43.0835H45.7522C44.0226 43.0835 42.5673 41.9867 42.272 40.3415H50.7087C50.7509 36.777 48.8105 34.4358 45.478 34.4358V34.4569ZM42.2931 38.7174C42.6727 37.1777 43.9593 36.2286 45.5412 36.2286C47.1231 36.2286 48.3886 37.1988 48.6417 38.7174H42.2931Z" fill="#1B1B1B"/>
<path id="Vector_7" d="M31.4739 34.6466V36.4394H36.4938L31.4106 42.1342V44.8129L32.9925 43.0201L40.438 34.6466H31.4528H31.4739Z" fill="#1B1B1B"/>
<path id="Vector_8" d="M12.9761 34.4569C10.0654 34.4569 7.70312 36.8192 7.70312 39.6877C7.70312 42.5562 10.0654 44.9185 12.9761 44.9185C15.8868 44.9185 18.2491 42.5773 18.2491 39.6877C18.2491 36.7981 15.8868 34.4569 12.9761 34.4569ZM12.9761 43.1468C11.0778 43.1468 9.55921 41.586 9.55921 39.6877C9.55921 37.7894 11.0778 36.2497 12.9761 36.2497C14.8744 36.2497 16.393 37.7894 16.393 39.6877C16.393 41.586 14.8744 43.1468 12.9761 43.1468Z" fill="#1B1B1B"/>
</g>
</g>
</svg>
