<svg width="72" height="72" viewBox="0 0 72 72" fill="none" xmlns="http://www.w3.org/2000/svg">
<g id="pix">
<path id="Vector" d="M28.7538 66.765L15.9499 53.94H17.9538C20.5905 53.94 23.1007 52.9064 24.978 51.0291L35.1452 40.8619C35.8835 40.1447 37.0647 40.1447 37.803 40.8619L47.928 50.9869C49.7843 52.8642 52.3155 53.8978 54.9311 53.8978H56.1546L43.3085 66.7439C39.3007 70.7517 32.8038 70.7517 28.796 66.7439H28.7749L28.7538 66.765ZM5.25537 43.2666C1.24756 39.2587 1.24756 32.7619 5.25537 28.7541L13.0601 20.9494C13.2288 21.0337 13.4187 21.0548 13.5874 21.0548H17.9327C19.789 21.0548 21.5397 21.7931 22.8476 23.0798L33.0147 33.247C34.9132 35.1455 37.9929 35.1455 39.8913 33.247L50.0163 23.122C51.303 21.8353 53.0749 21.097 54.9101 21.097H58.4327C58.6015 21.097 58.8124 21.0548 58.9811 20.9916L66.7437 28.7541C70.7515 32.7619 70.7515 39.2587 66.7437 43.2666L58.9811 51.0291C58.8124 50.9447 58.6226 50.9236 58.4327 50.9236H54.9101C53.0749 50.9236 51.303 50.1853 50.0163 48.8986L39.8913 38.7736C37.9718 36.9384 34.9554 36.9384 33.0147 38.7736L22.8476 48.9408C21.5608 50.2275 19.789 50.9658 17.9538 50.9658H13.6085C13.4397 50.9658 13.2499 51.008 13.0812 51.0712L5.27646 43.2666H5.25537ZM35.103 31.1798L24.9358 21.0126C23.0796 19.1353 20.5483 18.1017 17.9116 18.1017H15.9077L28.7116 5.25562C32.7194 1.2478 39.2163 1.2478 43.2241 5.25562L56.0702 18.1017H54.8468C52.2101 18.1017 49.6999 19.1353 47.8437 21.0126L37.7187 31.1376C36.9804 31.8759 35.7991 31.8759 35.0608 31.1376H35.0819L35.103 31.1798Z" fill="black"/>
</g>
</svg>
