<svg width="58" height="58" viewBox="0 0 58 58" fill="none" xmlns="http://www.w3.org/2000/svg">
<path d="M51.6506 12.8293H6.34941C3.84375 12.8293 1.8125 14.8606 1.8125 17.3663V47.1706C1.8125 49.6762 3.84375 51.7075 6.34941 51.7075H51.6506C54.1563 51.7075 56.1875 49.6762 56.1875 47.1706V17.3663C56.1875 14.8606 54.1563 12.8293 51.6506 12.8293Z" stroke="black" stroke-width="2" stroke-linecap="round" stroke-linejoin="round"/>
<path d="M19.0256 12.8291V8.00332C19.0256 6.59297 20.1811 5.4375 21.5915 5.4375H36.4086C37.819 5.4375 38.9745 6.59297 38.9745 8.00332V12.8291" stroke="black" stroke-width="2" stroke-linecap="round" stroke-linejoin="round"/>
<path d="M39.4332 27.8162H33.0441V21.4441H24.9558V27.8162H18.5668V35.9214H24.9558V42.2935H33.0441V35.9214H39.4332V27.8162Z" stroke="black" stroke-width="2" stroke-linecap="round" stroke-linejoin="round"/>
</svg>
