<svg width="32" height="32" viewBox="0 0 32 32" fill="none" xmlns="http://www.w3.org/2000/svg">
<path d="M30.8312 16.6689C31.0562 16.3783 31.0562 15.9752 30.8312 15.6939C29.3125 13.7252 23.2187 6.48766 16 6.58141C8.78125 6.47829 2.6875 13.7158 1.16875 15.6845C0.94375 15.9752 0.94375 16.3783 1.16875 16.6595C2.6875 18.6283 8.78125 25.8658 16 25.772C23.2187 25.8658 29.3125 18.6283 30.8312 16.6595V16.6689Z" stroke="white" stroke-width="2" stroke-miterlimit="10"/>
<path d="M16 20.7472C18.5268 20.7472 20.575 18.6989 20.575 16.1722C20.575 13.6455 18.5268 11.5972 16 11.5972C13.4733 11.5972 11.425 13.6455 11.425 16.1722C11.425 18.6989 13.4733 20.7472 16 20.7472Z" stroke="white" stroke-width="2" stroke-miterlimit="10"/>
<path d="M26.2098 6L5.79102 26.4281" stroke="white" stroke-width="2" stroke-miterlimit="10" stroke-linecap="round"/>
</svg>
